<svg width="111" height="12" viewBox="0 0 111 12" fill="none" xmlns="http://www.w3.org/2000/svg">
<path d="M0.338233 11.6493C0.144555 11.7387 0.0599737 11.9681 0.149315 12.1618C0.238656 12.3554 0.468089 12.44 0.661767 12.3507L0.338233 11.6493ZM110.5 12L107.894 8.38122L106.063 12.4474L110.5 12ZM0.5 12L0.661767 12.3507C1.37449 12.0219 2.09081 11.6993 2.81063 11.3831L2.65527 11.0295L2.49992 10.6759C1.7758 10.9941 1.05521 11.3186 0.338233 11.6493L0.5 12ZM7.01764 9.20674L7.16002 9.56573C8.61774 8.98758 10.0887 8.43479 11.5725 7.90793L11.4432 7.544L11.314 7.18007C9.82145 7.71006 8.34167 8.26614 6.87526 8.84774L7.01764 9.20674ZM15.9263 6.04331L16.0422 6.4117C17.5376 5.94116 19.0449 5.49666 20.5636 5.07872L20.4611 4.70637L20.3586 4.33401C18.8309 4.75443 17.3146 5.20158 15.8104 5.67492L15.9263 6.04331ZM25.0415 3.53474L25.1305 3.91056C26.6553 3.54983 28.1907 3.21566 29.7361 2.90856L29.6609 2.52977L29.5856 2.15098C28.031 2.45989 26.4865 2.79604 24.9526 3.15891L25.0415 3.53474ZM34.3138 1.69213L34.3754 2.07339C35.9218 1.82368 37.4775 1.60092 39.042 1.40564L38.9941 1.02241L38.9463 0.63919C37.3726 0.835624 35.8078 1.05969 34.2523 1.31087L34.3138 1.69213ZM43.6948 0.520868L43.7289 0.905556C45.2885 0.767265 46.8562 0.656183 48.4314 0.572802L48.411 0.187144L48.3906 -0.198514C46.8062 -0.114648 45.2294 -0.00291977 43.6606 0.136179L43.6948 0.520868ZM53.1355 0.0207539L53.1423 0.406892C53.9265 0.393115 54.7124 0.386197 55.5 0.386197V0V-0.386197C54.7079 -0.386197 53.9175 -0.37924 53.1287 -0.365384L53.1355 0.0207539ZM55.5 0V0.386197C56.2876 0.386197 57.0735 0.393115 57.8577 0.406892L57.8645 0.0207538L57.8712 -0.365384C57.0825 -0.37924 56.2921 -0.386197 55.5 -0.386197V0ZM62.589 0.187144L62.5686 0.572802C64.1438 0.656183 65.7115 0.767264 67.2711 0.905556L67.3052 0.520867L67.3393 0.136179C65.7706 -0.00291981 64.1938 -0.114648 62.6094 -0.198513L62.589 0.187144ZM72.0059 1.02241L71.958 1.40564C73.5225 1.60092 75.0782 1.82368 76.6246 2.07339L76.6861 1.69213L76.7477 1.31087C75.1922 1.05969 73.6274 0.835623 72.0537 0.63919L72.0059 1.02241ZM81.3391 2.52977L81.2638 2.90856C82.8093 3.21565 84.3447 3.54983 85.8695 3.91056L85.9584 3.53474L86.0473 3.15891C84.5135 2.79604 82.969 2.45989 81.4144 2.15098L81.3391 2.52977ZM90.5389 4.70636L90.4364 5.07872C91.9551 5.49665 93.4624 5.94116 94.9578 6.4117L95.0737 6.04331L95.1896 5.67492C93.6853 5.20158 92.1691 4.75443 90.6413 4.33401L90.5389 4.70636ZM99.5567 7.544L99.4275 7.90793C100.911 8.43479 102.382 8.98757 103.84 9.56573L103.982 9.20673L104.125 8.84774C102.658 8.26614 101.179 7.71006 99.686 7.18006L99.5567 7.544ZM0.338233 11.6493C0.144555 11.7387 0.0599737 11.9681 0.149315 12.1618C0.238656 12.3554 0.468089 12.44 0.661767 12.3507L0.338233 11.6493ZM110.5 12L107.894 8.38122L106.063 12.4474L110.5 12ZM0.5 12L0.661767 12.3507C1.37449 12.0219 2.09081 11.6993 2.81063 11.3831L2.65527 11.0295L2.49992 10.6759C1.7758 10.9941 1.05521 11.3186 0.338233 11.6493L0.5 12ZM7.01764 9.20674L7.16002 9.56573C8.61774 8.98758 10.0887 8.43479 11.5725 7.90793L11.4432 7.544L11.314 7.18007C9.82145 7.71006 8.34167 8.26614 6.87526 8.84774L7.01764 9.20674ZM15.9263 6.04331L16.0422 6.4117C17.5376 5.94116 19.0449 5.49666 20.5636 5.07872L20.4611 4.70637L20.3586 4.33401C18.8309 4.75443 17.3146 5.20158 15.8104 5.67492L15.9263 6.04331ZM25.0415 3.53474L25.1305 3.91056C26.6553 3.54983 28.1907 3.21566 29.7361 2.90856L29.6609 2.52977L29.5856 2.15098C28.031 2.45989 26.4865 2.79604 24.9526 3.15891L25.0415 3.53474ZM34.3138 1.69213L34.3754 2.07339C35.9218 1.82368 37.4775 1.60092 39.042 1.40564L38.9941 1.02241L38.9463 0.63919C37.3726 0.835624 35.8078 1.05969 34.2523 1.31087L34.3138 1.69213ZM43.6948 0.520868L43.7289 0.905556C45.2885 0.767265 46.8562 0.656183 48.4314 0.572802L48.411 0.187144L48.3906 -0.198514C46.8062 -0.114648 45.2294 -0.00291977 43.6606 0.136179L43.6948 0.520868ZM53.1355 0.0207539L53.1423 0.406892C53.9265 0.393115 54.7124 0.386197 55.5 0.386197V0V-0.386197C54.7079 -0.386197 53.9175 -0.37924 53.1287 -0.365384L53.1355 0.0207539ZM55.5 0V0.386197C56.2876 0.386197 57.0735 0.393115 57.8577 0.406892L57.8645 0.0207538L57.8712 -0.365384C57.0825 -0.37924 56.2921 -0.386197 55.5 -0.386197V0ZM62.589 0.187144L62.5686 0.572802C64.1438 0.656183 65.7115 0.767264 67.2711 0.905556L67.3052 0.520867L67.3393 0.136179C65.7706 -0.00291981 64.1938 -0.114648 62.6094 -0.198513L62.589 0.187144ZM72.0059 1.02241L71.958 1.40564C73.5225 1.60092 75.0782 1.82368 76.6246 2.07339L76.6861 1.69213L76.7477 1.31087C75.1922 1.05969 73.6274 0.835623 72.0537 0.63919L72.0059 1.02241ZM81.3391 2.52977L81.2638 2.90856C82.8093 3.21565 84.3447 3.54983 85.8695 3.91056L85.9584 3.53474L86.0473 3.15891C84.5135 2.79604 82.969 2.45989 81.4144 2.15098L81.3391 2.52977ZM90.5389 4.70636L90.4364 5.07872C91.9551 5.49665 93.4624 5.94116 94.9578 6.4117L95.0737 6.04331L95.1896 5.67492C93.6853 5.20158 92.1691 4.75443 90.6413 4.33401L90.5389 4.70636ZM99.5567 7.544L99.4275 7.90793C100.911 8.43479 102.382 8.98757 103.84 9.56573L103.982 9.20673L104.125 8.84774C102.658 8.26614 101.179 7.71006 99.686 7.18006L99.5567 7.544Z" fill="#AFAFAF"/>
</svg>
