<svg width="86" height="12" viewBox="0 0 86 12" fill="none" xmlns="http://www.w3.org/2000/svg">
<path d="M0.302044 0.331606C0.118904 0.222279 0.0590669 -0.0148144 0.168395 -0.197954C0.277723 -0.381095 0.514815 -0.440932 0.697956 -0.331604L0.302044 0.331606ZM85.5 9.53674e-07L83.2793 3.86716L81.0406 0.0104008L85.5 9.53674e-07ZM0.5 9.53674e-07L0.697956 -0.331604C1.33602 0.0492954 1.97779 0.421839 2.62317 0.785914L2.43342 1.12228L2.24367 1.45865C1.59275 1.09145 0.945508 0.71573 0.302044 0.331606L0.5 9.53674e-07ZM6.38027 3.22072L6.55293 2.87527C7.88261 3.53984 9.22628 4.1691 10.5832 4.76214L10.4285 5.11601L10.2739 5.46989C8.90469 4.87149 7.54903 4.23661 6.20762 3.56617L6.38027 3.22072ZM14.5701 6.7981L14.706 6.43657C16.0954 6.95853 17.4974 7.44302 18.9114 7.88912L18.7952 8.25743L18.6791 8.62573C17.2517 8.17543 15.8366 7.68641 14.4343 7.15963L14.5701 6.7981ZM23.0932 9.48558L23.1891 9.11148C24.6242 9.47935 26.0705 9.80804 27.5273 10.0966L27.4523 10.4755L27.3772 10.8543C25.9064 10.5629 24.4461 10.2311 22.9973 9.85968L23.0932 9.48558ZM31.8596 11.2215L31.9134 10.839C33.3775 11.045 34.8512 11.2106 36.3339 11.335L36.3016 11.7198L36.2693 12.1047C34.7722 11.9791 33.2842 11.8118 31.8058 11.6039L31.8596 11.2215ZM40.7645 11.9689L40.7752 11.5829C41.5148 11.6035 42.2565 11.6138 43 11.6138V12V12.3862C42.2493 12.3862 41.5005 12.3758 40.7537 12.355L40.7645 11.9689ZM43 12V11.6138C43.7435 11.6138 44.4852 11.6035 45.2248 11.5829L45.2355 11.9689L45.2463 12.355C44.4995 12.3758 43.7507 12.3862 43 12.3862V12ZM49.6984 11.7198L49.6661 11.335C51.1488 11.2106 52.6225 11.045 54.0866 10.839L54.1404 11.2215L54.1942 11.6039C52.7158 11.8118 51.2278 11.9791 49.7307 12.1047L49.6984 11.7198ZM58.5477 10.4755L58.4727 10.0966C59.9295 9.80804 61.3758 9.47935 62.8109 9.11148L62.9068 9.48558L63.0027 9.85968C61.5538 10.2311 60.0936 10.5629 58.6228 10.8543L58.5477 10.4755ZM67.2048 8.25743L67.0886 7.88912C68.5026 7.44302 69.9046 6.95853 71.294 6.43657L71.4299 6.7981L71.5657 7.15963C70.1634 7.68641 68.7483 8.17543 67.3209 8.62573L67.2048 8.25743ZM75.5715 5.11601L75.4168 4.76213C76.7737 4.16909 78.1174 3.53983 79.4471 2.87527L79.6197 3.22072L79.7924 3.56617C78.451 4.2366 77.0953 4.87148 75.7261 5.46989L75.5715 5.11601ZM0.302044 0.331606C0.118904 0.222279 0.0590669 -0.0148144 0.168395 -0.197954C0.277723 -0.381095 0.514815 -0.440932 0.697956 -0.331604L0.302044 0.331606ZM85.5 9.53674e-07L83.2793 3.86716L81.0406 0.0104008L85.5 9.53674e-07ZM0.5 9.53674e-07L0.697956 -0.331604C1.33602 0.0492954 1.97779 0.421839 2.62317 0.785914L2.43342 1.12228L2.24367 1.45865C1.59275 1.09145 0.945508 0.71573 0.302044 0.331606L0.5 9.53674e-07ZM6.38027 3.22072L6.55293 2.87527C7.88261 3.53984 9.22628 4.1691 10.5832 4.76214L10.4285 5.11601L10.2739 5.46989C8.90469 4.87149 7.54903 4.23661 6.20762 3.56617L6.38027 3.22072ZM14.5701 6.7981L14.706 6.43657C16.0954 6.95853 17.4974 7.44302 18.9114 7.88912L18.7952 8.25743L18.6791 8.62573C17.2517 8.17543 15.8366 7.68641 14.4343 7.15963L14.5701 6.7981ZM23.0932 9.48558L23.1891 9.11148C24.6242 9.47935 26.0705 9.80804 27.5273 10.0966L27.4523 10.4755L27.3772 10.8543C25.9064 10.5629 24.4461 10.2311 22.9973 9.85968L23.0932 9.48558ZM31.8596 11.2215L31.9134 10.839C33.3775 11.045 34.8512 11.2106 36.3339 11.335L36.3016 11.7198L36.2693 12.1047C34.7722 11.9791 33.2842 11.8118 31.8058 11.6039L31.8596 11.2215ZM40.7645 11.9689L40.7752 11.5829C41.5148 11.6035 42.2565 11.6138 43 11.6138V12V12.3862C42.2493 12.3862 41.5005 12.3758 40.7537 12.355L40.7645 11.9689ZM43 12V11.6138C43.7435 11.6138 44.4852 11.6035 45.2248 11.5829L45.2355 11.9689L45.2463 12.355C44.4995 12.3758 43.7507 12.3862 43 12.3862V12ZM49.6984 11.7198L49.6661 11.335C51.1488 11.2106 52.6225 11.045 54.0866 10.839L54.1404 11.2215L54.1942 11.6039C52.7158 11.8118 51.2278 11.9791 49.7307 12.1047L49.6984 11.7198ZM58.5477 10.4755L58.4727 10.0966C59.9295 9.80804 61.3758 9.47935 62.8109 9.11148L62.9068 9.48558L63.0027 9.85968C61.5538 10.2311 60.0936 10.5629 58.6228 10.8543L58.5477 10.4755ZM67.2048 8.25743L67.0886 7.88912C68.5026 7.44302 69.9046 6.95853 71.294 6.43657L71.4299 6.7981L71.5657 7.15963C70.1634 7.68641 68.7483 8.17543 67.3209 8.62573L67.2048 8.25743ZM75.5715 5.11601L75.4168 4.76213C76.7737 4.16909 78.1174 3.53983 79.4471 2.87527L79.6197 3.22072L79.7924 3.56617C78.451 4.2366 77.0953 4.87148 75.7261 5.46989L75.5715 5.11601Z" fill="#AFAFAF"/>
</svg>
