<svg width="49" height="138" viewBox="0 0 49 138" fill="none" xmlns="http://www.w3.org/2000/svg">
<path d="M18.5486 -0.114989C18.4861 -0.318897 18.2701 -0.433477 18.0662 -0.370911C17.8622 -0.308345 17.7477 -0.0923257 17.8102 0.111583L18.5486 -0.114989ZM37.4456 82.8028L37.0629 82.751L37.4456 82.8028ZM18.1794 135.697L22.1149 133.6L18.331 131.24L18.1794 135.697ZM18.1794 -0.00170302L17.8102 0.111583C18.048 0.886433 18.315 1.6545 18.6076 2.41898L18.9683 2.28094L19.329 2.14289C19.042 1.39316 18.7808 0.641647 18.5486 -0.114989L18.1794 -0.00170302ZM20.928 6.7008L20.5819 6.87226C21.2816 8.28425 22.0447 9.70721 22.8475 11.1604L23.1855 10.9736L23.5235 10.7869C22.7234 9.33852 21.9664 7.92676 21.274 6.52933L20.928 6.7008ZM25.5499 15.1938L25.213 15.3828C25.978 16.7464 26.7578 18.15 27.5372 19.6095L27.8779 19.4276L28.2186 19.2457C27.4353 17.7792 26.6525 16.3701 25.8867 15.0049L25.5499 15.1938ZM30.0767 23.7334L29.7292 23.9018C30.409 25.3046 31.0768 26.7623 31.7213 28.2853L32.077 28.1348L32.4326 27.9842C31.7824 26.4478 31.1091 24.9781 30.4242 23.565L30.0767 23.7334ZM33.834 32.6372L33.4703 32.7671C33.9933 34.2314 34.4902 35.7546 34.9531 37.3439L35.3239 37.2359L35.6946 37.1279C35.2273 35.5233 34.7257 33.9855 34.1977 32.5073L33.834 32.6372ZM36.5394 41.9237L36.1628 42.0096C36.5078 43.5221 36.8211 45.0911 37.0972 46.7214L37.478 46.6569L37.8588 46.5924C37.5802 44.9477 37.2641 43.3644 36.9159 41.8378L36.5394 41.9237ZM38.1578 51.4483L37.7742 51.4925C37.9521 53.036 38.0973 54.6309 38.2062 56.2804L38.5915 56.2549L38.9769 56.2295C38.8672 54.5676 38.7208 52.9602 38.5415 51.4041L38.1578 51.4483ZM38.8007 61.0972L38.4146 61.1054C38.4475 62.6645 38.4491 64.2693 38.4167 65.9221L38.8029 65.9296L39.189 65.9372C39.2215 64.2742 39.2199 62.6589 39.1868 61.0891L38.8007 61.0972ZM38.6183 70.7513L38.2327 70.7295C38.1446 72.2906 38.0275 73.8918 37.8795 75.5348L38.2642 75.5695L38.6488 75.6041C38.7975 73.9527 38.9153 72.3429 39.0039 70.773L38.6183 70.7513ZM37.7564 80.3764L37.373 80.3301C37.2766 81.1277 37.1733 81.9346 37.0629 82.751L37.4456 82.8028L37.8283 82.8546C37.9392 82.0346 38.043 81.224 38.1398 80.4227L37.7564 80.3764ZM37.4456 82.8028L37.0629 82.751C36.9573 83.5314 36.845 84.3093 36.7263 85.0846L37.108 85.1431L37.4897 85.2016C37.6092 84.4219 37.7221 83.6395 37.8283 82.8546L37.4456 82.8028ZM36.3096 89.8027L35.9302 89.7307C35.6364 91.2805 35.3161 92.8192 34.9699 94.3462L35.3466 94.4316L35.7232 94.517C36.0714 92.981 36.3935 91.4334 36.6891 89.8746L36.3096 89.8027ZM34.2193 99.0225L33.8459 98.9237C33.4426 100.448 33.0133 101.96 32.5585 103.459L32.9281 103.571L33.2976 103.683C33.7551 102.175 34.187 100.654 34.5926 99.1213L34.2193 99.0225ZM31.4741 108.069L31.1088 107.944C30.5973 109.434 30.0602 110.911 29.4983 112.374L29.8588 112.512L30.2193 112.651C30.7846 111.179 31.3248 109.694 31.8394 108.195L31.4741 108.069ZM28.0836 116.894L27.7284 116.743C27.1106 118.192 26.468 119.626 25.8012 121.045L26.1507 121.209L26.5002 121.373C27.171 119.946 27.8174 118.503 28.4389 117.046L28.0836 116.894ZM24.0625 125.45L23.7192 125.273C22.9981 126.673 22.2531 128.057 21.4847 129.424L21.8214 129.613L22.158 129.802C22.931 128.427 23.6805 127.035 24.4058 125.627L24.0625 125.45ZM18.5486 -0.114989C18.4861 -0.318897 18.2701 -0.433477 18.0662 -0.370911C17.8622 -0.308345 17.7477 -0.0923257 17.8102 0.111583L18.5486 -0.114989ZM37.4456 82.8028L37.0629 82.751L37.4456 82.8028ZM18.1794 135.697L22.1149 133.6L18.331 131.24L18.1794 135.697ZM18.1794 -0.00170302L17.8102 0.111583C18.048 0.886433 18.315 1.6545 18.6076 2.41898L18.9683 2.28094L19.329 2.14289C19.042 1.39316 18.7808 0.641647 18.5486 -0.114989L18.1794 -0.00170302ZM20.928 6.7008L20.5819 6.87226C21.2816 8.28425 22.0447 9.70721 22.8475 11.1604L23.1855 10.9736L23.5235 10.7869C22.7234 9.33852 21.9664 7.92676 21.274 6.52933L20.928 6.7008ZM25.5499 15.1938L25.213 15.3828C25.978 16.7464 26.7578 18.15 27.5372 19.6095L27.8779 19.4276L28.2186 19.2457C27.4353 17.7792 26.6525 16.3701 25.8867 15.0049L25.5499 15.1938ZM30.0767 23.7334L29.7292 23.9018C30.409 25.3046 31.0768 26.7623 31.7213 28.2853L32.077 28.1348L32.4326 27.9842C31.7824 26.4478 31.1091 24.9781 30.4242 23.565L30.0767 23.7334ZM33.834 32.6372L33.4703 32.7671C33.9933 34.2314 34.4902 35.7546 34.9531 37.3439L35.3239 37.2359L35.6946 37.1279C35.2273 35.5233 34.7257 33.9855 34.1977 32.5073L33.834 32.6372ZM36.5394 41.9237L36.1628 42.0096C36.5078 43.5221 36.8211 45.0911 37.0972 46.7214L37.478 46.6569L37.8588 46.5924C37.5802 44.9477 37.2641 43.3644 36.9159 41.8378L36.5394 41.9237ZM38.1578 51.4483L37.7742 51.4925C37.9521 53.036 38.0973 54.6309 38.2062 56.2804L38.5915 56.2549L38.9769 56.2295C38.8672 54.5676 38.7208 52.9602 38.5415 51.4041L38.1578 51.4483ZM38.8007 61.0972L38.4146 61.1054C38.4475 62.6645 38.4491 64.2693 38.4167 65.9221L38.8029 65.9296L39.189 65.9372C39.2215 64.2742 39.2199 62.6589 39.1868 61.0891L38.8007 61.0972ZM38.6183 70.7513L38.2327 70.7295C38.1446 72.2906 38.0275 73.8918 37.8795 75.5348L38.2642 75.5695L38.6488 75.6041C38.7975 73.9527 38.9153 72.3429 39.0039 70.773L38.6183 70.7513ZM37.7564 80.3764L37.373 80.3301C37.2766 81.1277 37.1733 81.9346 37.0629 82.751L37.4456 82.8028L37.8283 82.8546C37.9392 82.0346 38.043 81.224 38.1398 80.4227L37.7564 80.3764ZM37.4456 82.8028L37.0629 82.751C36.9573 83.5314 36.845 84.3093 36.7263 85.0846L37.108 85.1431L37.4897 85.2016C37.6092 84.4219 37.7221 83.6395 37.8283 82.8546L37.4456 82.8028ZM36.3096 89.8027L35.9302 89.7307C35.6364 91.2805 35.3161 92.8192 34.9699 94.3462L35.3466 94.4316L35.7232 94.517C36.0714 92.981 36.3935 91.4334 36.6891 89.8746L36.3096 89.8027ZM34.2193 99.0225L33.8459 98.9237C33.4426 100.448 33.0133 101.96 32.5585 103.459L32.9281 103.571L33.2976 103.683C33.7551 102.175 34.187 100.654 34.5926 99.1213L34.2193 99.0225ZM31.4741 108.069L31.1088 107.944C30.5973 109.434 30.0602 110.911 29.4983 112.374L29.8588 112.512L30.2193 112.651C30.7846 111.179 31.3248 109.694 31.8394 108.195L31.4741 108.069ZM28.0836 116.894L27.7284 116.743C27.1106 118.192 26.468 119.626 25.8012 121.045L26.1507 121.209L26.5002 121.373C27.171 119.946 27.8174 118.503 28.4389 117.046L28.0836 116.894ZM24.0625 125.45L23.7192 125.273C22.9981 126.673 22.2531 128.057 21.4847 129.424L21.8214 129.613L22.158 129.802C22.931 128.427 23.6805 127.035 24.4058 125.627L24.0625 125.45Z" fill="#AFAFAF"/>
</svg>
