<svg width="86" height="12" viewBox="0 0 86 12" fill="none" xmlns="http://www.w3.org/2000/svg">
<path d="M85.698 0.331606C85.8811 0.222279 85.9409 -0.0148144 85.8316 -0.197954C85.7223 -0.381095 85.4852 -0.440932 85.302 -0.331604L85.698 0.331606ZM0.500008 9.53674e-07L2.72071 3.86716L4.95942 0.0104008L0.500008 9.53674e-07ZM85.5 9.53674e-07L85.302 -0.331604C84.664 0.0492954 84.0222 0.421839 83.3768 0.785914L83.5666 1.12228L83.7563 1.45865C84.4073 1.09145 85.0545 0.71573 85.698 0.331606L85.5 9.53674e-07ZM79.6197 3.22072L79.4471 2.87527C78.1174 3.53984 76.7737 4.1691 75.4168 4.76214L75.5715 5.11601L75.7261 5.46989C77.0953 4.87149 78.451 4.23661 79.7924 3.56617L79.6197 3.22072ZM71.4299 6.7981L71.294 6.43657C69.9046 6.95853 68.5026 7.44302 67.0886 7.88912L67.2048 8.25743L67.3209 8.62573C68.7483 8.17543 70.1634 7.68641 71.5657 7.15963L71.4299 6.7981ZM62.9068 9.48558L62.8109 9.11148C61.3758 9.47935 59.9295 9.80804 58.4727 10.0966L58.5477 10.4755L58.6228 10.8543C60.0936 10.5629 61.5539 10.2311 63.0027 9.85968L62.9068 9.48558ZM54.1404 11.2215L54.0866 10.839C52.6225 11.045 51.1488 11.2106 49.6661 11.335L49.6984 11.7198L49.7307 12.1047C51.2278 11.9791 52.7158 11.8118 54.1942 11.6039L54.1404 11.2215ZM45.2355 11.9689L45.2248 11.5829C44.4852 11.6035 43.7435 11.6138 43 11.6138V12V12.3862C43.7507 12.3862 44.4995 12.3758 45.2463 12.355L45.2355 11.9689ZM43 12V11.6138C42.2565 11.6138 41.5148 11.6035 40.7752 11.5829L40.7645 11.9689L40.7537 12.355C41.5005 12.3758 42.2493 12.3862 43 12.3862V12ZM36.3016 11.7198L36.3339 11.335C34.8512 11.2106 33.3775 11.045 31.9134 10.839L31.8596 11.2215L31.8058 11.6039C33.2842 11.8118 34.7722 11.9791 36.2693 12.1047L36.3016 11.7198ZM27.4523 10.4755L27.5273 10.0966C26.0705 9.80804 24.6242 9.47935 23.1891 9.11148L23.0932 9.48558L22.9973 9.85968C24.4462 10.2311 25.9064 10.5629 27.3772 10.8543L27.4523 10.4755ZM18.7952 8.25743L18.9114 7.88912C17.4974 7.44302 16.0954 6.95853 14.706 6.43657L14.5701 6.7981L14.4343 7.15963C15.8366 7.68641 17.2517 8.17543 18.6791 8.62573L18.7952 8.25743ZM10.4285 5.11601L10.5832 4.76213C9.22628 4.16909 7.88261 3.53983 6.55293 2.87527L6.38027 3.22072L6.20762 3.56617C7.54903 4.2366 8.90469 4.87148 10.2739 5.46989L10.4285 5.11601ZM85.698 0.331606C85.8811 0.222279 85.9409 -0.0148144 85.8316 -0.197954C85.7223 -0.381095 85.4852 -0.440932 85.302 -0.331604L85.698 0.331606ZM0.500008 9.53674e-07L2.72071 3.86716L4.95942 0.0104008L0.500008 9.53674e-07ZM85.5 9.53674e-07L85.302 -0.331604C84.664 0.0492954 84.0222 0.421839 83.3768 0.785914L83.5666 1.12228L83.7563 1.45865C84.4073 1.09145 85.0545 0.71573 85.698 0.331606L85.5 9.53674e-07ZM79.6197 3.22072L79.4471 2.87527C78.1174 3.53984 76.7737 4.1691 75.4168 4.76214L75.5715 5.11601L75.7261 5.46989C77.0953 4.87149 78.451 4.23661 79.7924 3.56617L79.6197 3.22072ZM71.4299 6.7981L71.294 6.43657C69.9046 6.95853 68.5026 7.44302 67.0886 7.88912L67.2048 8.25743L67.3209 8.62573C68.7483 8.17543 70.1634 7.68641 71.5657 7.15963L71.4299 6.7981ZM62.9068 9.48558L62.8109 9.11148C61.3758 9.47935 59.9295 9.80804 58.4727 10.0966L58.5477 10.4755L58.6228 10.8543C60.0936 10.5629 61.5539 10.2311 63.0027 9.85968L62.9068 9.48558ZM54.1404 11.2215L54.0866 10.839C52.6225 11.045 51.1488 11.2106 49.6661 11.335L49.6984 11.7198L49.7307 12.1047C51.2278 11.9791 52.7158 11.8118 54.1942 11.6039L54.1404 11.2215ZM45.2355 11.9689L45.2248 11.5829C44.4852 11.6035 43.7435 11.6138 43 11.6138V12V12.3862C43.7507 12.3862 44.4995 12.3758 45.2463 12.355L45.2355 11.9689ZM43 12V11.6138C42.2565 11.6138 41.5148 11.6035 40.7752 11.5829L40.7645 11.9689L40.7537 12.355C41.5005 12.3758 42.2493 12.3862 43 12.3862V12ZM36.3016 11.7198L36.3339 11.335C34.8512 11.2106 33.3775 11.045 31.9134 10.839L31.8596 11.2215L31.8058 11.6039C33.2842 11.8118 34.7722 11.9791 36.2693 12.1047L36.3016 11.7198ZM27.4523 10.4755L27.5273 10.0966C26.0705 9.80804 24.6242 9.47935 23.1891 9.11148L23.0932 9.48558L22.9973 9.85968C24.4462 10.2311 25.9064 10.5629 27.3772 10.8543L27.4523 10.4755ZM18.7952 8.25743L18.9114 7.88912C17.4974 7.44302 16.0954 6.95853 14.706 6.43657L14.5701 6.7981L14.4343 7.15963C15.8366 7.68641 17.2517 8.17543 18.6791 8.62573L18.7952 8.25743ZM10.4285 5.11601L10.5832 4.76213C9.22628 4.16909 7.88261 3.53983 6.55293 2.87527L6.38027 3.22072L6.20762 3.56617C7.54903 4.2366 8.90469 4.87148 10.2739 5.46989L10.4285 5.11601Z" fill="#AFAFAF"/>
</svg>
