<svg width="86" height="12" viewBox="0 0 86 12" fill="none" xmlns="http://www.w3.org/2000/svg">
<path d="M85.698 11.6684C85.8811 11.7777 85.9409 12.0148 85.8316 12.198C85.7223 12.3811 85.4852 12.4409 85.302 12.3316L85.698 11.6684ZM0.500008 12L2.72071 8.13284L4.95942 11.9896L0.500008 12ZM85.5 12L85.302 12.3316C84.664 11.9507 84.0222 11.5782 83.3768 11.2141L83.5666 10.8777L83.7563 10.5414C84.4073 10.9086 85.0545 11.2843 85.698 11.6684L85.5 12ZM79.6197 8.77928L79.4471 9.12473C78.1174 8.46016 76.7737 7.8309 75.4168 7.23786L75.5715 6.88399L75.7261 6.53011C77.0953 7.12851 78.451 7.76339 79.7924 8.43383L79.6197 8.77928ZM71.4299 5.2019L71.294 5.56343C69.9046 5.04147 68.5026 4.55698 67.0886 4.11088L67.2048 3.74257L67.3209 3.37427C68.7483 3.82457 70.1634 4.31359 71.5657 4.84037L71.4299 5.2019ZM62.9068 2.51442L62.8109 2.88852C61.3758 2.52065 59.9295 2.19196 58.4727 1.90338L58.5477 1.52455L58.6228 1.14571C60.0936 1.43708 61.5539 1.76893 63.0027 2.14032L62.9068 2.51442ZM54.1404 0.778544L54.0866 1.16098C52.6225 0.95505 51.1488 0.789427 49.6661 0.665004L49.6984 0.28016L49.7307 -0.104685C51.2278 0.0209481 52.7158 0.188182 54.1942 0.39611L54.1404 0.778544ZM45.2355 0.0310806L45.2248 0.417129C44.4852 0.396544 43.7435 0.386197 43 0.386197V0V-0.386197C43.7507 -0.386197 44.4995 -0.375751 45.2463 -0.354967L45.2355 0.0310806ZM43 0V0.386197C42.2565 0.386197 41.5148 0.396544 40.7752 0.417129L40.7645 0.0310806L40.7537 -0.354967C41.5005 -0.375751 42.2493 -0.386197 43 -0.386197V0ZM36.3016 0.28016L36.3339 0.665004C34.8512 0.789427 33.3775 0.95505 31.9134 1.16098L31.8596 0.778543L31.8058 0.39611C33.2842 0.188182 34.7722 0.0209481 36.2693 -0.104685L36.3016 0.28016ZM27.4523 1.52455L27.5273 1.90338C26.0705 2.19196 24.6242 2.52065 23.1891 2.88852L23.0932 2.51442L22.9973 2.14032C24.4462 1.76893 25.9064 1.43708 27.3772 1.14571L27.4523 1.52455ZM18.7952 3.74257L18.9114 4.11088C17.4974 4.55698 16.0954 5.04147 14.706 5.56343L14.5701 5.2019L14.4343 4.84037C15.8366 4.31359 17.2517 3.82457 18.6791 3.37427L18.7952 3.74257ZM10.4285 6.88399L10.5832 7.23787C9.22628 7.83091 7.88261 8.46017 6.55293 9.12473L6.38027 8.77928L6.20762 8.43383C7.54903 7.7634 8.90469 7.12852 10.2739 6.53011L10.4285 6.88399ZM85.698 11.6684C85.8811 11.7777 85.9409 12.0148 85.8316 12.198C85.7223 12.3811 85.4852 12.4409 85.302 12.3316L85.698 11.6684ZM0.500008 12L2.72071 8.13284L4.95942 11.9896L0.500008 12ZM85.5 12L85.302 12.3316C84.664 11.9507 84.0222 11.5782 83.3768 11.2141L83.5666 10.8777L83.7563 10.5414C84.4073 10.9086 85.0545 11.2843 85.698 11.6684L85.5 12ZM79.6197 8.77928L79.4471 9.12473C78.1174 8.46016 76.7737 7.8309 75.4168 7.23786L75.5715 6.88399L75.7261 6.53011C77.0953 7.12851 78.451 7.76339 79.7924 8.43383L79.6197 8.77928ZM71.4299 5.2019L71.294 5.56343C69.9046 5.04147 68.5026 4.55698 67.0886 4.11088L67.2048 3.74257L67.3209 3.37427C68.7483 3.82457 70.1634 4.31359 71.5657 4.84037L71.4299 5.2019ZM62.9068 2.51442L62.8109 2.88852C61.3758 2.52065 59.9295 2.19196 58.4727 1.90338L58.5477 1.52455L58.6228 1.14571C60.0936 1.43708 61.5539 1.76893 63.0027 2.14032L62.9068 2.51442ZM54.1404 0.778544L54.0866 1.16098C52.6225 0.95505 51.1488 0.789427 49.6661 0.665004L49.6984 0.28016L49.7307 -0.104685C51.2278 0.0209481 52.7158 0.188182 54.1942 0.39611L54.1404 0.778544ZM45.2355 0.0310806L45.2248 0.417129C44.4852 0.396544 43.7435 0.386197 43 0.386197V0V-0.386197C43.7507 -0.386197 44.4995 -0.375751 45.2463 -0.354967L45.2355 0.0310806ZM43 0V0.386197C42.2565 0.386197 41.5148 0.396544 40.7752 0.417129L40.7645 0.0310806L40.7537 -0.354967C41.5005 -0.375751 42.2493 -0.386197 43 -0.386197V0ZM36.3016 0.28016L36.3339 0.665004C34.8512 0.789427 33.3775 0.95505 31.9134 1.16098L31.8596 0.778543L31.8058 0.39611C33.2842 0.188182 34.7722 0.0209481 36.2693 -0.104685L36.3016 0.28016ZM27.4523 1.52455L27.5273 1.90338C26.0705 2.19196 24.6242 2.52065 23.1891 2.88852L23.0932 2.51442L22.9973 2.14032C24.4462 1.76893 25.9064 1.43708 27.3772 1.14571L27.4523 1.52455ZM18.7952 3.74257L18.9114 4.11088C17.4974 4.55698 16.0954 5.04147 14.706 5.56343L14.5701 5.2019L14.4343 4.84037C15.8366 4.31359 17.2517 3.82457 18.6791 3.37427L18.7952 3.74257ZM10.4285 6.88399L10.5832 7.23787C9.22628 7.83091 7.88261 8.46017 6.55293 9.12473L6.38027 8.77928L6.20762 8.43383C7.54903 7.7634 8.90469 7.12852 10.2739 6.53011L10.4285 6.88399Z" fill="#AFAFAF"/>
</svg>
