<svg width="15" height="12" viewBox="0 0 15 12" fill="none" xmlns="http://www.w3.org/2000/svg">
<path d="M7.10088 3.84642C7.169 3.83943 7.23712 3.83709 7.30524 3.83709C8.59461 3.83709 9.6407 4.81906 9.6407 6.07624C9.6407 7.31244 8.59461 8.31539 7.30524 8.31539C5.99397 8.31539 4.96977 7.31244 4.96977 6.07624C4.96977 6.01094 4.9722 5.94563 4.9795 5.88032C5.20575 5.98528 5.46849 6.07624 5.74826 6.07624C6.60703 6.07624 7.30524 5.40683 7.30524 4.58348C7.30524 4.31525 7.21036 4.06334 7.10088 3.84642ZM11.9908 2.73151C13.1293 3.7438 13.8908 4.93568 14.2508 5.78935C14.3311 5.97362 14.3311 6.17887 14.2508 6.36313C13.8908 7.19582 13.1293 8.3877 11.9908 9.42097C10.8449 10.4426 9.27092 11.3009 7.30524 11.3009C5.33955 11.3009 3.76554 10.4426 2.62019 9.42097C1.48165 8.3877 0.720675 7.19582 0.358702 6.36313C0.27887 6.17887 0.27887 5.97362 0.358702 5.78935C0.720675 4.93568 1.48165 3.7438 2.62019 2.73151C3.76554 1.71084 5.33955 0.851562 7.30524 0.851562C9.27092 0.851562 10.8449 1.71084 11.9908 2.73151ZM7.30524 2.71752C5.37118 2.71752 3.80203 4.22195 3.80203 6.07624C3.80203 7.93054 5.37118 9.43497 7.30524 9.43497C9.2393 9.43497 10.8084 7.93054 10.8084 6.07624C10.8084 4.22195 9.2393 2.71752 7.30524 2.71752Z" fill="white"/>
</svg>
