<svg width="54" height="53" viewBox="0 0 54 53" fill="none" xmlns="http://www.w3.org/2000/svg">
<g filter="url(#filter0_f_2035_13459)">
<path d="M0.691406 13.2021C0.691406 5.9108 6.60221 0 13.8936 0L40.2979 0C47.5892 0 53.5 5.9108 53.5 13.2021V39.6064C53.5 46.8978 47.5892 52.8086 40.2979 52.8086H0.691406V13.2021Z" fill="black" fill-opacity="0.5"/>
</g>
<path d="M0.691406 13.2021C0.691406 5.9108 6.60221 0 13.8936 0L40.2979 0C47.5892 0 53.5 5.9108 53.5 13.2021V39.6064C53.5 46.8978 47.5892 52.8086 40.2979 52.8086H0.691406V13.2021Z" fill="url(#paint0_linear_2035_13459)"/>
<g style="mix-blend-mode:overlay">
<mask id="mask0_2035_13459" style="mask-type:alpha" maskUnits="userSpaceOnUse" x="0" y="0" width="54" height="53">
<rect x="0.5" width="52.8086" height="52.8086" rx="13.2021" fill="url(#paint1_linear_2035_13459)"/>
</mask>
<g mask="url(#mask0_2035_13459)">
<path opacity="0.3" d="M0.5 0L53.3086 0V52.8086L25.5841 26.9324L0.5 0Z" fill="url(#paint2_linear_2035_13459)"/>
</g>
</g>
<path d="M23.8693 19.7949H30.2959C30.4173 19.347 30.6765 18.4463 30.8078 18H23.3594C23.4841 18.4479 23.7384 19.3486 23.8713 19.7949H23.8693Z" fill="white"/>
<path d="M36.3396 18H32.5891L31.9246 20.3428C31.7179 21.0795 31.0354 21.5898 30.2741 21.5898H23.7229C21.8755 21.5733 21.8886 19.3092 21.4079 18H17.6574C13.1604 18 9.5 21.662 9.5 26.1574C9.72313 35.8667 23.3207 37.3564 25.6178 27.9342H28.3822C30.7037 37.3613 44.2556 35.8799 44.5 26.1574C44.5 21.662 40.838 18 36.3426 18H36.3396ZM32.8942 26.1574C32.9156 24.9252 34.7515 24.9351 34.7695 26.1574C34.7482 27.3911 32.9172 27.3993 32.8942 26.1574ZM35.3979 28.6709C35.4192 27.4322 37.2616 27.4322 37.283 28.6709C37.2649 29.8981 35.4159 29.8981 35.3979 28.6709ZM35.3979 23.6539C35.4192 22.4152 37.2616 22.4152 37.283 23.6539C37.26 24.8795 35.4208 24.8795 35.3979 23.6539ZM38.8531 27.1009C37.6177 27.0795 37.6111 25.242 38.8531 25.2256C40.0836 25.2453 40.0754 27.0779 38.8531 27.1009ZM25.3293 23.8606H28.668C29.8493 23.8787 29.8493 25.644 28.668 25.6555H25.3293C24.1497 25.644 24.1464 23.8786 25.3293 23.8606ZM21.6854 26.1575C21.6854 26.6596 21.2818 27.055 20.788 27.055H18.5534V29.2895C18.5534 29.7834 18.1498 30.187 17.656 30.187C17.1621 30.187 16.7586 29.7834 16.7586 29.2895V27.055H14.5322C14.0302 27.055 13.6348 26.6596 13.6348 26.1575C13.6348 25.6637 14.0302 25.2601 14.5322 25.2601H16.7586V23.0337C16.7586 22.5317 17.1622 22.1363 17.656 22.1363C18.1498 22.1363 18.5534 22.5317 18.5534 23.0337V25.2601H20.788C21.2818 25.2601 21.6854 25.6637 21.6854 26.1575Z" fill="white"/>
<defs>
<filter id="filter0_f_2035_13459" x="-1.42094" y="-2.11234" width="57.0333" height="57.0333" filterUnits="userSpaceOnUse" color-interpolation-filters="sRGB">
<feFlood flood-opacity="0" result="BackgroundImageFix"/>
<feBlend mode="normal" in="SourceGraphic" in2="BackgroundImageFix" result="shape"/>
<feGaussianBlur stdDeviation="1.05617" result="effect1_foregroundBlur_2035_13459"/>
</filter>
<linearGradient id="paint0_linear_2035_13459" x1="27.0957" y1="0" x2="27.0957" y2="52.8086" gradientUnits="userSpaceOnUse">
<stop stop-color="#742BFA"/>
<stop offset="1" stop-color="#9A47E9"/>
</linearGradient>
<linearGradient id="paint1_linear_2035_13459" x1="1.72811" y1="25.0146" x2="51.4664" y2="25.0146" gradientUnits="userSpaceOnUse">
<stop stop-color="#07569E"/>
<stop offset="1" stop-color="#0093DD"/>
</linearGradient>
<linearGradient id="paint2_linear_2035_13459" x1="50.1401" y1="48.3199" x2="-6.62916" y2="-12.146" gradientUnits="userSpaceOnUse">
<stop offset="0.116225" stop-color="white" stop-opacity="0"/>
<stop offset="1" stop-color="white"/>
</linearGradient>
</defs>
</svg>
