<svg width="54" height="53" viewBox="0 0 54 53" fill="none" xmlns="http://www.w3.org/2000/svg">
<g filter="url(#filter0_f_2035_13492)">
<path d="M0.691406 13.2021C0.691406 5.9108 6.60221 0 13.8936 0L40.2979 0C47.5892 0 53.5 5.9108 53.5 13.2021V39.6064C53.5 46.8978 47.5892 52.8086 40.2979 52.8086H0.691406V13.2021Z" fill="black" fill-opacity="0.5"/>
</g>
<path d="M0.691406 13.2021C0.691406 5.9108 6.60221 0 13.8936 0L40.2979 0C47.5892 0 53.5 5.9108 53.5 13.2021V39.6064C53.5 46.8978 47.5892 52.8086 40.2979 52.8086H0.691406V13.2021Z" fill="url(#paint0_linear_2035_13492)"/>
<g style="mix-blend-mode:overlay">
<mask id="mask0_2035_13492" style="mask-type:alpha" maskUnits="userSpaceOnUse" x="0" y="0" width="54" height="53">
<rect x="0.5" width="52.8086" height="52.8086" rx="13.2021" fill="url(#paint1_linear_2035_13492)"/>
</mask>
<g mask="url(#mask0_2035_13492)">
<path opacity="0.3" d="M0.5 0L53.3086 0V52.8086L25.5841 26.9324L0.5 0Z" fill="url(#paint2_linear_2035_13492)"/>
</g>
</g>
<path d="M41.4884 29.6958C43.0853 26.1516 43.9032 24.3989 45.5 20.8547C41.8389 17.6611 37.9053 18.5179 33.5821 15.5968L34.0884 14.4674L33.0758 14L27 27.4368L20.9242 14L19.9116 14.4674L20.4179 15.5968C16.0947 18.4789 12.1611 17.6221 8.5 20.8158C10.0968 24.36 10.9147 26.1126 12.5116 29.6568C16.1726 26.6189 20.9242 27.0084 24.4684 24.4379L26.4158 28.7221L22.4821 37.4463L23.4947 37.9137L27 30.1242L30.5053 37.9137L31.5179 37.4463L27.6232 28.7611L29.5705 24.4768C33.0758 27.0084 37.8274 26.6579 41.4884 29.6958ZM30.7779 21.9453C31.44 22.4126 31.7905 22.6074 32.5305 22.9579C32.8811 22.2179 33.0368 21.8674 33.3484 21.1274C32.6084 20.7768 32.2579 20.5821 31.5958 20.1147C31.9463 19.3747 32.1021 19.0242 32.4137 18.2842C33.0758 18.7516 33.4263 18.9463 34.1663 19.2968C34.5168 18.5568 34.6726 18.2063 34.9842 17.4663C35.7242 17.8168 36.1137 17.9337 36.8926 18.2063C36.5421 18.9463 36.3863 19.2968 36.0747 20.0368C36.8537 20.2705 37.2432 20.3874 38.0221 20.6211C38.3726 19.8811 38.5284 19.5305 38.84 18.7905C39.6189 19.0242 40.0084 19.1411 40.7874 19.3747C40.4368 20.1147 40.2811 20.4653 39.9695 21.2053C40.7484 21.4389 41.1379 21.5947 41.8779 21.9453C42.2284 21.2053 42.3842 20.8547 42.6958 20.1147C43.4358 20.4653 43.7863 20.66 44.4484 21.1274C44.0979 21.8674 43.9421 22.2179 43.6305 22.9579C42.9684 22.4905 42.6179 22.2958 41.8779 21.9453C41.5274 22.6853 41.3716 23.0358 41.06 23.7758C41.8 24.1263 42.1505 24.3211 42.8126 24.7884C42.4621 25.5284 42.3063 25.8789 41.9947 26.6189C41.3326 26.1516 40.9821 25.9568 40.2421 25.6063C39.8916 26.3463 39.7358 26.6968 39.4242 27.4368C38.6842 27.0863 38.2947 26.9695 37.5158 26.6968C37.8663 25.9568 38.0221 25.6063 38.3337 24.8663C37.5547 24.6326 37.1653 24.5158 36.3863 24.2821C36.0358 25.0221 35.88 25.3726 35.5684 26.1126C34.7895 25.8789 34.4 25.7621 33.6211 25.5284C33.9716 24.7884 34.1274 24.4379 34.4389 23.6979C33.66 23.4642 33.2705 23.3084 32.5305 22.9579C32.18 23.6979 32.0242 24.0484 31.7126 24.7884C30.9726 24.4379 30.6221 24.2432 29.96 23.7758C30.2716 23.0358 30.4274 22.6853 30.7779 21.9453ZM22.2874 24.7884C21.9368 24.0484 21.7811 23.6979 21.4695 22.9579C20.7295 23.3084 20.34 23.4253 19.5611 23.6979C19.9116 24.4379 20.0674 24.7884 20.3789 25.5284C19.6 25.7621 19.2105 25.8789 18.4316 26.1126C18.0811 25.3726 17.9253 25.0221 17.6137 24.2821C16.8347 24.5158 16.4453 24.6326 15.6663 24.8663C16.0168 25.6063 16.1726 25.9568 16.4842 26.6968C15.7053 26.9305 15.3158 27.0863 14.5758 27.4368C14.2253 26.6968 14.0695 26.3463 13.7579 25.6063C13.0179 25.9568 12.6674 26.1516 12.0053 26.6189C11.6547 25.8789 11.4989 25.5284 11.1874 24.7884C11.8495 24.3211 12.2 24.1263 12.94 23.7758C12.5895 23.0358 12.4337 22.6853 12.1221 21.9453C11.3821 22.2958 11.0316 22.4905 10.3695 22.9579C10.0189 22.2179 9.86316 21.8674 9.55158 21.1274C10.2137 20.66 10.5642 20.4653 11.3042 20.1147C11.6547 20.8547 11.8105 21.2053 12.1221 21.9453C12.8621 21.5947 13.2516 21.4779 14.0305 21.2053C13.68 20.4653 13.5242 20.1147 13.2126 19.3747C13.9916 19.1411 14.3811 19.0242 15.16 18.7905C15.5105 19.5305 15.6663 19.8811 15.9779 20.6211C16.7568 20.3874 17.1463 20.2705 17.9253 20.0368C17.5747 19.2968 17.4189 18.9463 17.1074 18.2063C17.8863 17.9726 18.2758 17.8168 19.0158 17.4663C19.3663 18.2063 19.5221 18.5568 19.8337 19.2968C20.5737 18.9463 20.9242 18.7516 21.5863 18.2842C21.9368 19.0242 22.0926 19.3747 22.4042 20.1147C21.7421 20.5821 21.3916 20.7768 20.6516 21.1274C21.0021 21.8674 21.1579 22.2179 21.4695 22.9579C22.2095 22.6074 22.56 22.4126 23.2221 21.9453C23.5726 22.6853 23.7284 23.0358 24.04 23.7758C23.4168 24.2821 23.0274 24.4768 22.2874 24.7884Z" fill="white"/>
<path d="M36.113 19.9978C35.3341 19.7641 34.9446 19.6083 34.2046 19.2578C33.8541 19.9978 33.6983 20.3483 33.3867 21.0883C34.1267 21.4389 34.5162 21.5557 35.2951 21.8283C35.6067 21.0883 35.7625 20.7378 36.113 19.9978Z" fill="white"/>
<path d="M39.1915 22.9968C39.542 22.2568 39.6978 21.9062 40.0094 21.1662C39.2305 20.9326 38.841 20.8157 38.062 20.582C37.7115 21.322 37.5557 21.6726 37.2441 22.4126C38.0231 22.6462 38.4126 22.7631 39.1915 22.9968Z" fill="white"/>
<path d="M35.2573 21.8281C34.9068 22.5681 34.751 22.9187 34.4395 23.6587C35.2184 23.8923 35.6079 24.0092 36.3868 24.2429C36.7373 23.5029 36.8931 23.1523 37.2047 22.4123C36.4258 22.1787 36.0363 22.1008 35.2573 21.8281Z" fill="white"/>
<path d="M38.334 24.8657C39.1129 25.0994 39.5024 25.2552 40.2424 25.6057C40.5929 24.8657 40.7487 24.5152 41.0603 23.7752C40.3203 23.4246 39.9308 23.3078 39.1519 23.0352C38.8403 23.7362 38.6845 24.1257 38.334 24.8657Z" fill="white"/>
<path d="M20.6501 21.0883C20.2996 20.3483 20.1438 19.9978 19.8322 19.2578C19.0922 19.6083 18.7028 19.7252 17.9238 19.9978C18.2744 20.7378 18.4301 21.0883 18.7417 21.8283C19.5207 21.5947 19.9101 21.4389 20.6501 21.0883Z" fill="white"/>
<path d="M16.7555 22.4126C16.405 21.6726 16.2492 21.322 15.9376 20.582C15.1587 20.8157 14.7692 20.9326 13.9902 21.1662C14.3408 21.9062 14.4966 22.2568 14.8081 22.9968C15.5871 22.7631 15.9766 22.6462 16.7555 22.4126Z" fill="white"/>
<path d="M16.7559 22.4123C17.1064 23.1523 17.2622 23.5029 17.5738 24.2429C18.3527 24.0092 18.7422 23.8923 19.5211 23.6587C19.1706 22.9187 19.0148 22.5681 18.7032 21.8281C17.9632 22.1008 17.5738 22.1787 16.7559 22.4123Z" fill="white"/>
<path d="M12.9023 23.7361C13.2529 24.4761 13.4087 24.8266 13.7202 25.5666C14.4602 25.2161 14.8497 25.0993 15.6287 24.8266C15.2781 24.0866 15.1223 23.7361 14.8108 22.9961C14.0318 23.2687 13.6423 23.3856 12.9023 23.7361Z" fill="white"/>
<defs>
<filter id="filter0_f_2035_13492" x="-1.42094" y="-2.11234" width="57.0333" height="57.0333" filterUnits="userSpaceOnUse" color-interpolation-filters="sRGB">
<feFlood flood-opacity="0" result="BackgroundImageFix"/>
<feBlend mode="normal" in="SourceGraphic" in2="BackgroundImageFix" result="shape"/>
<feGaussianBlur stdDeviation="1.05617" result="effect1_foregroundBlur_2035_13492"/>
</filter>
<linearGradient id="paint0_linear_2035_13492" x1="27.0957" y1="0" x2="27.0957" y2="52.8086" gradientUnits="userSpaceOnUse">
<stop stop-color="#742BFA"/>
<stop offset="1" stop-color="#9A47E9"/>
</linearGradient>
<linearGradient id="paint1_linear_2035_13492" x1="1.72811" y1="25.0146" x2="51.4664" y2="25.0146" gradientUnits="userSpaceOnUse">
<stop stop-color="#07569E"/>
<stop offset="1" stop-color="#0093DD"/>
</linearGradient>
<linearGradient id="paint2_linear_2035_13492" x1="50.1401" y1="48.3199" x2="-6.62916" y2="-12.146" gradientUnits="userSpaceOnUse">
<stop offset="0.116225" stop-color="white" stop-opacity="0"/>
<stop offset="1" stop-color="white"/>
</linearGradient>
</defs>
</svg>
