<svg width="54" height="53" viewBox="0 0 54 53" fill="none" xmlns="http://www.w3.org/2000/svg">
<g filter="url(#filter0_f_2035_13470)">
<path d="M0.691406 13.2021C0.691406 5.9108 6.60221 0 13.8936 0L40.2979 0C47.5892 0 53.5 5.9108 53.5 13.2021V39.6064C53.5 46.8978 47.5892 52.8086 40.2979 52.8086H0.691406V13.2021Z" fill="black" fill-opacity="0.5"/>
</g>
<path d="M0.691406 13.2021C0.691406 5.9108 6.60221 0 13.8936 0L40.2979 0C47.5892 0 53.5 5.9108 53.5 13.2021V39.6064C53.5 46.8978 47.5892 52.8086 40.2979 52.8086H0.691406V13.2021Z" fill="url(#paint0_linear_2035_13470)"/>
<g style="mix-blend-mode:overlay">
<mask id="mask0_2035_13470" style="mask-type:alpha" maskUnits="userSpaceOnUse" x="0" y="0" width="54" height="53">
<rect x="0.5" width="52.8086" height="52.8086" rx="13.2021" fill="url(#paint1_linear_2035_13470)"/>
</mask>
<g mask="url(#mask0_2035_13470)">
<path opacity="0.3" d="M0.5 0L53.3086 0V52.8086L25.5841 26.9324L0.5 0Z" fill="url(#paint2_linear_2035_13470)"/>
</g>
</g>
<path d="M36.5253 16H18.4747C17.3864 16.0054 16.5064 16.8979 16.5 17.9994V34.0006C16.5063 35.1021 17.3863 35.9946 18.4747 36H36.5253C37.6136 35.9946 38.4936 35.1021 38.5 34.0006V17.9994C38.4937 16.8979 37.6137 16.0054 36.5253 16ZM24.713 31.1087C25.043 31.443 25.043 31.9852 24.713 32.3206C24.383 32.6549 23.8478 32.6549 23.5178 32.3206L22.3892 31.1773L21.2606 32.3206C20.9306 32.6549 20.3954 32.6549 20.0654 32.3206C19.7354 31.9852 19.7354 31.443 20.0654 31.1087L21.194 29.9655L20.0654 28.8222V28.8233C19.7545 28.4847 19.764 27.9586 20.0855 27.6329C20.4081 27.3061 20.9275 27.2964 21.2606 27.6115L22.3892 28.7547L23.5177 27.6115C23.8509 27.2965 24.3702 27.3061 24.6928 27.6329C25.0144 27.9586 25.0239 28.4847 24.7129 28.8233L23.5844 29.9665L24.713 31.1087ZM22.8631 24.2513C22.7044 24.4356 22.4728 24.5406 22.2316 24.5374C21.9905 24.5342 21.762 24.4314 21.5992 24.2513L20.0993 22.5713C19.9491 22.402 19.8719 22.1781 19.8846 21.9509C19.8973 21.7238 19.9989 21.5116 20.167 21.3595C20.5171 21.0498 21.0481 21.0809 21.3622 21.4281L22.2306 22.4224L24.6115 19.7137C24.9256 19.3666 25.4566 19.3355 25.8077 19.6451C25.9759 19.7973 26.0764 20.0094 26.0891 20.2366C26.1018 20.4637 26.0256 20.6876 25.8754 20.8569L22.8631 24.2513ZM28.9099 29.9655C28.9162 29.4951 29.2917 29.1147 29.7561 29.1083H34.2692C34.7367 29.1083 35.1154 29.4929 35.1154 29.9655C35.1154 30.4391 34.7367 30.8226 34.2692 30.8226H29.7561C29.3044 30.8173 28.9342 30.4573 28.9099 29.9997V29.9655ZM34.2692 22.8574H29.7561C29.2896 22.8574 28.9099 22.4727 28.9099 22.0002C28.9099 21.5266 29.2896 21.143 29.7561 21.143H34.2692C34.7367 21.143 35.1154 21.5266 35.1154 22.0002C35.1154 22.4727 34.7367 22.8574 34.2692 22.8574Z" fill="white"/>
<defs>
<filter id="filter0_f_2035_13470" x="-1.42094" y="-2.11234" width="57.0333" height="57.0333" filterUnits="userSpaceOnUse" color-interpolation-filters="sRGB">
<feFlood flood-opacity="0" result="BackgroundImageFix"/>
<feBlend mode="normal" in="SourceGraphic" in2="BackgroundImageFix" result="shape"/>
<feGaussianBlur stdDeviation="1.05617" result="effect1_foregroundBlur_2035_13470"/>
</filter>
<linearGradient id="paint0_linear_2035_13470" x1="27.0957" y1="0" x2="27.0957" y2="52.8086" gradientUnits="userSpaceOnUse">
<stop stop-color="#742BFA"/>
<stop offset="1" stop-color="#9A47E9"/>
</linearGradient>
<linearGradient id="paint1_linear_2035_13470" x1="1.72811" y1="25.0146" x2="51.4664" y2="25.0146" gradientUnits="userSpaceOnUse">
<stop stop-color="#07569E"/>
<stop offset="1" stop-color="#0093DD"/>
</linearGradient>
<linearGradient id="paint2_linear_2035_13470" x1="50.1401" y1="48.3199" x2="-6.62916" y2="-12.146" gradientUnits="userSpaceOnUse">
<stop offset="0.116225" stop-color="white" stop-opacity="0"/>
<stop offset="1" stop-color="white"/>
</linearGradient>
</defs>
</svg>
