<svg width="54" height="53" viewBox="0 0 54 53" fill="none" xmlns="http://www.w3.org/2000/svg">
<g filter="url(#filter0_f_2035_13479)">
<path d="M0.691406 13.2021C0.691406 5.9108 6.60221 0 13.8936 0L40.2979 0C47.5892 0 53.5 5.9108 53.5 13.2021V39.6064C53.5 46.8978 47.5892 52.8086 40.2979 52.8086H0.691406V13.2021Z" fill="black" fill-opacity="0.5"/>
</g>
<path d="M0.691406 13.2021C0.691406 5.9108 6.60221 0 13.8936 0L40.2979 0C47.5892 0 53.5 5.9108 53.5 13.2021V39.6064C53.5 46.8978 47.5892 52.8086 40.2979 52.8086H0.691406V13.2021Z" fill="url(#paint0_linear_2035_13479)"/>
<g style="mix-blend-mode:overlay">
<mask id="mask0_2035_13479" style="mask-type:alpha" maskUnits="userSpaceOnUse" x="0" y="0" width="54" height="53">
<rect x="0.5" width="52.8086" height="52.8086" rx="13.2021" fill="url(#paint1_linear_2035_13479)"/>
</mask>
<g mask="url(#mask0_2035_13479)">
<path opacity="0.3" d="M0.5 0L53.3086 0V52.8086L25.5841 26.9324L0.5 0Z" fill="url(#paint2_linear_2035_13479)"/>
</g>
</g>
<path d="M15.5 33.4299C15.5 33.1394 15.6154 32.8608 15.8208 32.6554C16.0262 32.45 16.3048 32.3346 16.5952 32.3346H18.7857C19.0762 32.3346 19.3548 32.45 19.5602 32.6554C19.7656 32.8608 19.881 33.1394 19.881 33.4299V38.9061C19.881 39.1965 19.7656 39.4751 19.5602 39.6805C19.3548 39.8859 19.0762 40.0013 18.7857 40.0013H16.5952C16.3048 40.0013 16.0262 39.8859 15.8208 39.6805C15.6154 39.4751 15.5 39.1965 15.5 38.9061V33.4299ZM22.0714 29.0489C22.0714 28.7584 22.1868 28.4799 22.3922 28.2745C22.5976 28.0691 22.8762 27.9537 23.1667 27.9537H25.3571C25.6476 27.9537 25.9262 28.0691 26.1316 28.2745C26.337 28.4799 26.4524 28.7584 26.4524 29.0489V38.9061C26.4524 39.1965 26.337 39.4751 26.1316 39.6805C25.9262 39.8859 25.6476 40.0013 25.3571 40.0013H23.1667C22.8762 40.0013 22.5976 39.8859 22.3922 39.6805C22.1868 39.4751 22.0714 39.1965 22.0714 38.9061V29.0489ZM28.6429 25.7632C28.6429 25.4727 28.7582 25.1942 28.9636 24.9888C29.169 24.7834 29.4476 24.668 29.7381 24.668H31.9286C32.219 24.668 32.4976 24.7834 32.703 24.9888C32.9084 25.1942 33.0238 25.4727 33.0238 25.7632V38.9061C33.0238 39.1965 32.9084 39.4751 32.703 39.6805C32.4976 39.8859 32.219 40.0013 31.9286 40.0013H29.7381C29.4476 40.0013 29.169 39.8859 28.9636 39.6805C28.7582 39.4751 28.6429 39.1965 28.6429 38.9061V25.7632Z" fill="white"/>
<path d="M23.6307 10.332C23.374 10.332 23.166 10.5401 23.166 10.7967V29.3825C23.166 29.6392 23.374 29.8472 23.6307 29.8472C23.8873 29.8472 24.0953 29.6392 24.0953 29.3825V10.7967C24.0953 10.5401 23.8873 10.332 23.6307 10.332ZM29.0903 10.7967C27.5303 10.8154 25.98 11.2614 24.56 12.1616V20.5543C24.56 20.5543 28.234 17.9796 32.6913 19.9081C36.6242 21.6097 38.4993 20.547 38.4993 20.547V12.1543C38.4993 12.1543 36.6441 13.1704 32.6913 11.5154C31.5226 11.0261 30.3036 10.7821 29.0903 10.7967Z" fill="white"/>
<defs>
<filter id="filter0_f_2035_13479" x="-1.42094" y="-2.11234" width="57.0333" height="57.0333" filterUnits="userSpaceOnUse" color-interpolation-filters="sRGB">
<feFlood flood-opacity="0" result="BackgroundImageFix"/>
<feBlend mode="normal" in="SourceGraphic" in2="BackgroundImageFix" result="shape"/>
<feGaussianBlur stdDeviation="1.05617" result="effect1_foregroundBlur_2035_13479"/>
</filter>
<linearGradient id="paint0_linear_2035_13479" x1="27.0957" y1="0" x2="27.0957" y2="52.8086" gradientUnits="userSpaceOnUse">
<stop stop-color="#742BFA"/>
<stop offset="1" stop-color="#9A47E9"/>
</linearGradient>
<linearGradient id="paint1_linear_2035_13479" x1="1.72811" y1="25.0146" x2="51.4664" y2="25.0146" gradientUnits="userSpaceOnUse">
<stop stop-color="#07569E"/>
<stop offset="1" stop-color="#0093DD"/>
</linearGradient>
<linearGradient id="paint2_linear_2035_13479" x1="50.1401" y1="48.3199" x2="-6.62916" y2="-12.146" gradientUnits="userSpaceOnUse">
<stop offset="0.116225" stop-color="white" stop-opacity="0"/>
<stop offset="1" stop-color="white"/>
</linearGradient>
</defs>
</svg>
