<svg width="334" height="128" viewBox="0 0 334 128" fill="none" xmlns="http://www.w3.org/2000/svg">
<rect y="0.835938" width="334" height="127" rx="20" fill="url(#paint0_linear_2035_8826)"/>
<rect x="0.5" y="1.33594" width="333" height="126" rx="19.5" stroke="white" stroke-opacity="0.5"/>
<path fill-rule="evenodd" clip-rule="evenodd" d="M244.798 39.7258C246.344 39.6938 247.617 40.9349 247.647 42.4764C247.662 42.6216 247.654 42.7649 247.624 42.9064L256.954 47.2549L257.448 42.4636C256.642 42.0719 256.09 41.2559 256.064 40.2953C256.056 39.2956 256.663 38.3747 257.616 37.9959C257.896 37.8844 258.186 37.8233 258.484 37.8124C259.134 37.8131 259.749 38.0538 260.224 38.5122C260.671 38.9818 260.944 39.5852 260.942 40.2331C260.949 40.4676 260.921 40.6947 260.856 40.9143L268.327 45.4845L274.864 35.8961C274.435 35.3874 274.218 34.7617 274.191 34.125C274.183 32.9634 274.897 31.9029 275.99 31.4684C276.308 31.3421 276.639 31.2754 276.982 31.2683C277.727 31.2634 278.421 31.5378 278.985 32.0577C279.51 32.5609 279.827 33.276 279.831 34.0188C279.829 34.6667 279.598 35.3087 279.216 35.8166L286.013 45.2169L293.345 40.3932C293.282 40.1809 293.247 39.9575 293.24 39.7229C293.232 38.7232 293.839 37.8023 294.764 37.4346C295.044 37.3232 295.334 37.262 295.632 37.2511C296.988 37.2301 298.099 38.3091 298.118 39.6606C298.121 40.5654 297.615 41.4138 296.78 41.843L297.423 46.6355L306.619 42.009C306.604 41.8638 306.59 41.7186 306.575 41.5733C306.567 40.4117 307.281 39.3513 308.346 38.9278C308.682 38.7941 309.022 38.7237 309.366 38.7166C310.111 38.7118 310.816 39.014 311.369 39.506C311.905 40.0371 312.183 40.7355 312.226 41.4951C312.234 42.6568 311.52 43.7172 310.427 44.1517C310.109 44.278 309.779 44.3447 309.435 44.3518C309.391 44.3481 309.333 44.3387 309.262 44.3237L302.442 65.6736C302.738 65.847 303.001 66.0986 303.179 66.3836C303.464 66.853 303.535 67.4395 303.393 67.9811C303.252 68.5227 302.915 68.9803 302.455 69.2926C302.152 69.4561 301.853 69.629 301.557 69.8111L301.551 70.202L301.624 74.5415C302.296 74.598 302.927 74.9617 303.295 75.5596C303.887 76.5543 303.57 77.8776 302.571 78.4686C300.288 79.8291 297.872 81.0163 295.405 81.9968C289.771 84.2365 283.82 85.437 277.721 85.5315C268.968 85.6459 260.316 83.4872 252.71 79.2297C251.676 78.6702 251.326 77.3854 251.889 76.3527C252.114 75.9396 252.507 75.6217 252.955 75.4434C253.142 75.3691 253.34 75.3228 253.549 75.3044L253.476 70.9649L253.472 70.546C253.17 70.3856 252.868 70.2252 252.566 70.0648C252.091 69.7684 251.722 69.3324 251.567 68.7793C251.422 68.2542 251.485 67.679 251.772 67.1767C251.947 66.8808 252.171 66.6297 252.457 66.4513L245.047 45.3221C245.002 45.3183 244.948 45.3183 244.884 45.3219C243.339 45.3539 242.065 44.1129 242.035 42.5714C242.027 41.4097 242.741 40.3493 243.806 39.9259C244.124 39.7996 244.455 39.7329 244.798 39.7258ZM242.78 42.5666C242.805 43.6891 243.727 44.6171 244.881 44.5792C245.11 44.585 245.346 44.5238 245.542 44.4458L253.408 66.8823C253.3 66.8822 253.199 66.9007 253.106 66.9378C252.826 67.0492 252.59 67.2724 252.404 67.5403C252.05 68.199 252.288 69.0425 252.948 69.395C253.37 69.6374 253.796 69.8668 254.229 70.0832L254.249 70.9489L254.314 76.1652C253.951 75.9861 253.57 76.0081 253.233 76.1418C252.953 76.2532 252.706 76.4484 252.56 76.7331C252.166 77.375 252.405 78.2186 253.065 78.5711C260.709 82.8454 269.222 84.8977 277.718 84.7888C283.654 84.694 289.549 83.5158 295.127 81.2985C297.537 80.3402 299.898 79.1753 302.181 77.8148C302.837 77.4245 303.058 76.5926 302.639 75.9499C302.31 75.3688 301.6 75.1335 300.983 75.3787C300.946 75.3935 300.912 75.4177 300.882 75.4512L300.817 70.2348L300.797 69.3691C301.223 69.135 301.646 68.8916 302.064 68.6388C302.693 68.2596 302.913 67.4277 302.523 66.7739C302.311 66.4051 301.925 66.1701 301.522 66.1362L308.766 43.4855C308.95 43.5415 309.202 43.6032 309.421 43.5811C309.682 43.5851 309.925 43.5425 310.149 43.4534C310.934 43.1414 311.473 42.3768 311.453 41.5111C311.456 40.3774 310.506 39.4605 309.381 39.4873C309.119 39.4834 308.867 39.5297 308.624 39.6262C307.867 39.9271 307.328 40.6917 307.348 41.5574C307.336 41.8533 307.419 42.1438 307.52 42.3952L296.809 47.7853L295.969 41.3563C296.088 41.3304 296.204 41.2951 296.316 41.2506C296.933 41.0054 297.366 40.3804 297.373 39.6655C297.359 38.7328 296.582 38.006 295.636 37.9939C295.427 38.0123 295.229 38.0587 295.042 38.133C294.425 38.3781 293.992 39.0032 293.985 39.718C293.995 40.0699 294.101 40.4163 294.296 40.6622L285.831 46.2276L278.208 35.7318C278.741 35.3581 279.079 34.7385 279.058 34.0348C279.061 32.9011 278.111 31.9843 276.986 32.0111C276.724 32.0071 276.482 32.0497 276.257 32.1388C275.473 32.4508 274.933 33.2154 274.953 34.0811C274.946 34.7959 275.314 35.3939 275.85 35.763L268.526 46.4732L259.898 41.1982C260.084 40.9303 260.208 40.5898 260.197 40.2379C260.183 39.3052 259.434 38.5673 258.499 38.5832C258.283 38.5829 258.081 38.62 257.894 38.6943C257.249 38.9505 256.817 39.5756 256.809 40.2905C256.818 41.1282 257.449 41.8158 258.267 41.9115L257.6 48.3893L246.749 43.3188C246.85 43.0843 246.901 42.8052 246.913 42.5092C246.877 41.3587 245.967 40.4586 244.802 40.4686C244.548 40.4833 244.309 40.5351 244.084 40.6243C243.3 40.9363 242.788 41.6897 242.78 42.5666Z" fill="#AD5E00"/>
<path d="M260.198 40.2358C260.184 39.3031 259.435 38.5652 258.5 38.581C257.565 38.5969 256.796 39.3557 256.81 40.2884C256.819 41.1261 257.45 41.8137 258.268 41.9094L257.01 54.1558L270.254 58.631L271.714 48.4401L259.899 41.1961C260.085 40.9282 260.209 40.5877 260.198 40.2358Z" fill="#BE6D00"/>
<path d="M297.374 39.6623C297.36 38.7297 296.583 38.0029 295.637 37.9908C294.702 38.0066 293.972 38.7822 293.986 39.7149C293.996 40.0667 294.102 40.4131 294.297 40.659L282.708 48.2431L284.446 58.3925L297.563 53.5018L295.97 41.3532C296.782 41.192 297.383 40.5001 297.374 39.6623Z" fill="#BE6D00"/>
<path d="M300.783 68.4344L309.387 41.4567L289.582 51.4008L277.026 34.0643L264.928 51.7844L244.847 42.4548L254.215 69.1484L254.353 78.7043L277.703 84.0159L300.921 77.9902L300.783 68.4344Z" fill="url(#paint1_linear_2035_8826)"/>
<path opacity="0.1" d="M300.664 67.1585C286.49 75.6728 268.709 75.9458 254.297 67.8896C254.091 67.7777 253.906 67.7216 253.704 67.7047L254.216 69.1517L254.25 70.95C261.543 74.7493 269.575 76.5722 277.612 76.4516C285.62 76.3421 293.623 74.2612 300.818 70.236L300.784 68.4376L301.247 66.9916C301.056 67.0026 300.849 67.0526 300.664 67.1585Z" fill="black"/>
<path d="M277.591 75.5855C269.106 75.7224 260.565 73.6812 252.949 69.3957C252.289 69.0433 252.05 68.1997 252.405 67.541C252.799 66.8992 253.617 66.671 254.277 67.0235C268.688 75.0798 286.469 74.8067 300.654 66.3204C301.31 65.9301 302.133 66.1208 302.523 66.7746C302.914 67.4284 302.693 68.2604 302.065 68.6395C294.543 73.1503 286.087 75.4765 277.591 75.5855Z" fill="url(#paint2_linear_2035_8826)"/>
<path d="M277.719 84.7889C269.223 84.8979 260.71 82.8455 253.066 78.5712C252.406 78.2187 252.167 77.3752 252.561 76.7333C252.915 76.0746 253.762 75.8353 254.393 76.1989C268.816 84.2832 286.586 83.9822 300.771 75.4959C301.427 75.1056 302.261 75.3242 302.64 75.9501C303.059 76.5927 302.838 77.4247 302.182 77.815C294.66 82.3258 286.203 84.652 277.719 84.7889Z" fill="url(#paint3_linear_2035_8826)"/>
<path fill-rule="evenodd" clip-rule="evenodd" d="M254.631 66.3639C266.654 73.0719 280.893 74.0129 293.703 68.9208C295.974 68.0183 298.166 66.9202 300.264 65.6657C300.369 65.6025 300.477 65.5486 300.589 65.504C301.542 65.1252 302.633 65.5004 303.18 66.3834C303.771 67.3781 303.443 68.6734 302.455 69.2924C300.173 70.6529 297.756 71.8401 295.261 72.8317C289.627 75.0713 283.705 76.2607 277.606 76.3553C268.824 76.4807 260.172 74.3221 252.566 70.0646C252.091 69.7681 251.723 69.3322 251.567 68.7791C251.423 68.254 251.486 67.6788 251.773 67.1764C251.998 66.7634 252.38 66.4175 252.828 66.2392C253.417 66.0052 254.089 66.0617 254.631 66.3639ZM252.405 67.5401C252.05 68.1988 252.289 69.0423 252.949 69.3948C260.565 73.6802 269.106 75.7215 277.591 75.5846C283.499 75.501 289.405 74.3507 294.983 72.1334C297.422 71.164 299.782 69.999 302.065 68.6386C302.693 68.2594 302.914 67.4275 302.523 66.7737C302.195 66.1925 301.456 65.9684 300.867 66.2024C300.793 66.2321 300.721 66.2711 300.654 66.3195C298.5 67.5963 296.28 68.7055 293.981 69.6192C281.172 74.7112 266.518 73.8704 254.277 67.0225C253.902 66.8155 253.471 66.7928 253.106 66.9376C252.826 67.049 252.59 67.2722 252.405 67.5401Z" fill="#AD5E00"/>
<path fill-rule="evenodd" clip-rule="evenodd" d="M254.787 75.5561C266.783 82.2752 281.011 83.1883 293.848 78.0851C296.091 77.1937 298.311 76.0845 300.381 74.8411C300.486 74.7779 300.594 74.724 300.706 74.6795C301.659 74.3006 302.75 74.6759 303.297 75.5588C303.592 76.0562 303.681 76.6036 303.539 77.1452C303.409 77.7147 303.072 78.1723 302.572 78.4678C300.29 79.8283 297.873 81.0155 295.406 81.996C289.772 84.2357 283.822 85.4362 277.723 85.5307C268.969 85.6451 260.317 83.4864 252.711 79.2289C251.677 78.6694 251.327 77.3846 251.89 76.3519C252.115 75.9388 252.508 75.6209 252.956 75.4426C253.545 75.2086 254.206 75.2372 254.787 75.5561ZM252.561 76.7323C252.167 77.3742 252.406 78.2178 253.066 78.5703C260.711 82.8446 269.223 84.8969 277.719 84.788C283.656 84.6932 289.55 83.515 295.128 81.2977C297.539 80.3394 299.899 79.1745 302.182 77.814C302.838 77.4237 303.059 76.5918 302.641 75.9491C302.312 75.368 301.601 75.1327 300.984 75.3779C300.91 75.4076 300.839 75.4466 300.771 75.4949C298.617 76.7717 296.397 77.881 294.126 78.7835C281.289 83.8867 266.635 83.0458 254.394 76.198C254.019 75.991 253.599 75.9961 253.235 76.141C252.954 76.2524 252.707 76.4476 252.561 76.7323Z" fill="#AD5E00"/>
<path d="M279.059 34.0334C279.084 35.156 278.191 36.0933 277.037 36.1313C275.9 36.1302 274.962 35.2413 274.954 34.0796C274.928 32.957 275.849 32.0085 276.986 32.0096C278.112 31.9828 279.062 32.8997 279.059 34.0334Z" fill="url(#paint4_linear_2035_8826)"/>
<path d="M246.914 42.5086C246.911 43.6424 246.018 44.5797 244.881 44.5786C243.728 44.6166 242.806 43.6886 242.781 42.566C242.784 41.4323 243.677 40.4949 244.802 40.4681C245.967 40.4581 246.878 41.3581 246.914 42.5086Z" fill="url(#paint5_linear_2035_8826)"/>
<path d="M311.454 41.5099C311.479 42.6325 310.558 43.5811 309.422 43.5799C308.296 43.6068 307.346 42.6899 307.349 41.5562C307.324 40.4336 308.245 39.4851 309.382 39.4862C310.507 39.4594 311.457 40.3762 311.454 41.5099Z" fill="url(#paint6_linear_2035_8826)"/>
<path opacity="0.3" d="M309.374 40.3637C310.376 40.3535 311.198 41.0301 311.431 41.9407C311.461 41.7992 311.469 41.6559 311.454 41.5106C311.457 40.3769 310.507 39.4601 309.382 39.4869C308.245 39.4858 307.324 40.4343 307.349 41.5569C307.345 41.7096 307.36 41.8548 307.393 41.9926C307.58 41.0768 308.399 40.3628 309.374 40.3637Z" fill="white"/>
<path opacity="0.3" d="M244.834 41.3616C245.825 41.3235 246.658 42.028 246.863 42.9497C246.893 42.8083 246.91 42.6612 246.914 42.5086C246.878 41.358 245.967 40.458 244.803 40.468C243.677 40.4948 242.784 41.4322 242.781 42.5659C242.777 42.7186 242.792 42.8638 242.825 43.0016C243.04 42.0747 243.831 41.3718 244.834 41.3616Z" fill="white"/>
<path opacity="0.3" d="M277.006 32.876C277.981 32.877 278.802 33.5535 279.035 34.4641C279.065 34.3226 279.073 34.1793 279.059 34.0341C279.062 32.9004 278.112 31.9835 276.986 32.0103C275.849 32.0092 274.929 32.9577 274.954 34.0803C274.95 34.233 274.968 34.3875 275.008 34.5439C275.184 33.6003 276.015 32.9141 277.006 32.876Z" fill="white"/>
<path d="M276.462 39.9848L276.833 67.5687C276.864 68.6243 276.005 69.4835 274.952 69.449C273.182 69.4082 271.117 69.1939 268.822 68.65C266.701 68.1341 264.849 67.4789 263.35 66.8128C262.594 66.4658 262.002 65.795 261.73 65.0296C260.137 60.2698 258.547 55.5192 256.962 50.778C260.202 52.4455 263.451 54.1092 266.71 55.7692C269.961 50.5077 273.211 45.2462 276.462 39.9848Z" fill="url(#paint7_linear_2035_8826)"/>
<path d="M255.292 51.152L258.686 64.0731C258.77 64.3636 258.439 64.5923 258.181 64.4356L256.901 63.5855C256.532 63.3115 256.253 62.937 256.142 62.4957L252.87 50.0438L255.292 51.152Z" fill="url(#paint8_linear_2035_8826)"/>
<path d="M262.558 71.917C262.671 71.5486 263.064 71.3926 263.405 71.5158C263.879 71.6726 264.384 71.8276 264.922 71.9808C265.556 72.1601 266.156 72.3097 266.724 72.4293C267.082 72.5135 267.322 72.8711 267.237 73.2285C267.18 73.5747 266.821 73.8145 266.474 73.7583C265.978 73.6536 265.474 73.5302 264.963 73.3882C264.246 73.22 263.573 73.0238 262.943 72.7998C262.612 72.7046 262.429 72.3246 262.525 71.9952C262.536 71.9692 262.547 71.9431 262.558 71.917Z" fill="url(#paint9_linear_2035_8826)"/>
<path d="M262.686 81.1202C262.799 80.7517 263.192 80.5957 263.533 80.7189C264.007 80.8757 264.512 81.0307 265.049 81.1839C265.684 81.3633 266.288 81.5221 266.863 81.6604C267.21 81.7166 267.45 82.0743 267.365 82.4316C267.308 82.7778 266.949 83.0176 266.602 82.9614C266.105 82.8567 265.602 82.7333 265.091 82.5913C264.374 82.4231 263.705 82.2363 263.082 82.0309C262.74 81.9077 262.556 81.5277 262.653 81.1983C262.664 81.1723 262.675 81.1462 262.686 81.1202Z" fill="url(#paint10_linear_2035_8826)"/>
<path d="M240.513 72.5175L241.28 74.6781C241.418 75.0769 241.752 75.392 242.156 75.5016L244.346 76.0978C245.389 76.3786 245.652 77.709 244.792 78.3442L242.949 79.7408C242.638 79.9797 242.44 80.4063 242.454 80.8073L242.571 83.1106C242.603 84.1606 241.406 84.8236 240.555 84.2111L238.676 82.9091C238.328 82.6599 237.881 82.624 237.481 82.7623L235.321 83.559C234.333 83.9484 233.338 83.0321 233.658 82.0124L234.317 79.8122C234.428 79.409 234.34 78.9656 234.101 78.6561L232.653 76.865C231.988 76.0158 232.569 74.8019 233.622 74.7688L235.926 74.7429C236.357 74.7208 236.734 74.4953 236.984 74.148L238.256 72.2508C238.827 71.3507 240.183 71.5166 240.513 72.5175Z" fill="url(#paint11_linear_2035_8826)"/>
<path fill-rule="evenodd" clip-rule="evenodd" d="M241.226 72.2643L241.993 74.4248C242.039 74.5991 242.166 74.7209 242.335 74.769L244.561 75.3865C245.303 75.5923 245.869 76.1878 246.013 76.9586C246.157 77.7294 245.862 78.4933 245.233 78.942L243.419 80.3308C243.26 80.4357 243.211 80.6044 243.2 80.7943L243.309 83.0685C243.347 84.0235 242.731 84.8733 241.799 85.1231C241.216 85.2792 240.622 85.1584 240.126 84.8242L238.247 83.5222C238.099 83.4372 237.938 83.4182 237.763 83.465C237.763 83.465 237.754 83.4676 237.734 83.4728L235.603 84.2617C235.526 84.2825 235.458 84.3007 235.399 84.3163C234.671 84.5115 233.929 84.3057 233.416 83.7894C232.895 83.2442 232.729 82.5102 232.945 81.7988L233.604 79.5987C233.653 79.43 233.606 79.2557 233.509 79.1261L232.09 77.3272C231.635 76.7954 231.507 76.0827 231.738 75.4294C231.939 74.7838 232.458 74.2714 233.128 74.0918C233.284 74.0502 233.444 74.0279 233.61 74.025L235.914 73.9991C235.953 73.9887 236.001 73.9757 236.06 73.96C236.176 73.9288 236.277 73.8395 236.349 73.758L237.613 71.8317C237.906 71.4107 238.296 71.1194 238.792 70.9866C239.841 70.7056 240.867 71.2712 241.226 72.2643ZM238.256 72.2508L236.984 74.1481C236.806 74.4138 236.545 74.6081 236.254 74.6861C236.138 74.7174 236.028 74.7363 235.926 74.743L233.622 74.7689C233.52 74.7755 233.42 74.7919 233.323 74.8179C232.478 75.0443 232.078 76.1164 232.653 76.865L234.101 78.6561C234.34 78.9656 234.428 79.4091 234.317 79.8123L233.658 82.0124C233.351 82.9662 234.251 83.8769 235.213 83.6193C235.251 83.6089 235.288 83.5888 235.321 83.559L237.481 82.7623C237.52 82.7519 237.559 82.7415 237.598 82.7311C237.977 82.6296 238.336 82.689 238.676 82.9091L240.555 84.2112C240.866 84.4391 241.255 84.4907 241.604 84.397C242.158 84.2487 242.589 83.7596 242.571 83.1106L242.454 80.8074C242.44 80.4064 242.638 79.9798 242.949 79.7409L244.792 78.3443C245.652 77.7091 245.389 76.3786 244.346 76.0979L242.156 75.5017C241.752 75.392 241.418 75.0769 241.28 74.6781L240.513 72.5176C240.298 71.8283 239.598 71.5488 238.986 71.7127C238.695 71.7908 238.427 71.956 238.256 72.2508Z" fill="#AD5E00"/>
<path opacity="0.5" d="M238.297 76.1319C238.21 76.6222 237.644 76.9604 236.999 76.8842C236.384 76.8002 235.915 76.3342 235.973 75.8517C236.024 75.3402 236.589 75.002 237.234 75.0782C237.887 75.1834 238.347 75.6204 238.297 76.1319Z" fill="url(#paint12_linear_2035_8826)"/>
<path opacity="0.5" d="M239.114 74.6373C239.06 74.9008 238.741 75.1107 238.382 75.0514C238.03 75.0211 237.741 74.7562 237.787 74.4636C237.834 74.171 238.16 73.9902 238.519 74.0495C238.871 74.0798 239.131 74.3524 239.114 74.6373Z" fill="url(#paint13_linear_2035_8826)"/>
<path d="M284.712 90.4784L286.805 91.4119C287.195 91.5875 287.626 91.5653 288.003 91.3398L289.967 90.16C290.887 89.6331 292.018 90.3574 291.896 91.4173L291.633 93.6981C291.589 94.1147 291.756 94.5057 292.082 94.7918L293.826 96.2859C294.605 96.9798 294.267 98.2843 293.232 98.4995L290.986 98.9766C290.571 99.0569 290.209 99.3404 290.062 99.7224L289.16 101.832C288.736 102.817 287.384 102.899 286.858 101.982L285.728 99.9809C285.539 99.6268 285.162 99.3854 284.716 99.3494L282.445 99.1486C281.39 99.0577 280.894 97.7897 281.591 97.0115L283.137 95.321C283.432 95.024 283.564 94.584 283.455 94.1774L282.951 91.9466C282.7 90.8931 283.754 90.0503 284.712 90.4784Z" fill="url(#paint14_linear_2035_8826)"/>
<path fill-rule="evenodd" clip-rule="evenodd" d="M285.031 89.8004L287.124 90.7339C287.234 90.7977 287.359 90.7955 287.475 90.7643C287.514 90.7538 287.563 90.7408 287.621 90.7252L289.577 89.5163C289.741 89.4307 289.92 89.3619 290.115 89.3099C290.756 89.1381 291.453 89.2937 291.943 89.7228C292.47 90.1731 292.736 90.8177 292.637 91.4979L292.403 93.7709C292.355 93.9395 292.43 94.106 292.557 94.2278L294.3 95.7218C294.871 96.2225 295.132 96.962 294.953 97.6947C294.775 98.4274 294.214 99.0135 293.515 99.2009C293.476 99.2113 293.427 99.2243 293.369 99.2399L291.094 99.7249C290.948 99.7639 290.818 99.8611 290.733 100.008L289.86 102.11C289.613 102.706 289.1 103.123 288.518 103.279C287.614 103.521 286.672 103.151 286.206 102.342L285.076 100.341C285.008 100.204 284.823 100.098 284.662 100.079L282.362 99.8856C281.6 99.8406 280.934 99.3344 280.652 98.6317C280.362 97.9 280.517 97.0802 281.049 96.5018L282.595 94.8113C282.717 94.6852 282.766 94.5165 282.719 94.3422L282.215 92.1115C281.956 91.029 282.612 89.9815 283.661 89.7005C284.128 89.5756 284.574 89.6115 285.031 89.8004ZM282.951 91.9453L283.455 94.1761C283.564 94.5827 283.432 95.0228 283.137 95.3198L281.591 97.0102C280.894 97.7885 281.39 99.0565 282.445 99.1473L284.716 99.3482C285.163 99.3841 285.54 99.6255 285.729 99.9797L286.858 101.981C287.189 102.515 287.806 102.723 288.331 102.582C288.681 102.488 288.984 102.221 289.16 101.831L290.063 99.7212C290.218 99.3683 290.521 99.1003 290.9 98.9988C290.938 98.9884 290.968 98.9806 290.987 98.9754L293.233 98.4982C293.252 98.493 293.281 98.4852 293.32 98.4748C294.281 98.2172 294.598 96.9495 293.826 96.2846L292.083 94.7905C291.756 94.5044 291.589 94.1135 291.634 93.6968L291.897 91.4161C291.992 90.4879 291.125 89.8174 290.309 90.036C290.193 90.0672 290.079 90.1081 289.967 90.1587L288.004 91.3386C287.898 91.4085 287.786 91.4591 287.67 91.4904C287.378 91.5684 287.093 91.5516 286.805 91.4107L284.713 90.4772C284.425 90.3364 284.11 90.3273 283.848 90.3976C283.236 90.5615 282.757 91.2192 282.951 91.9453Z" fill="#AD5E00"/>
<path opacity="0.5" d="M285.781 94.5811C286.101 94.9621 285.966 95.6211 285.445 96.0096C284.962 96.4193 284.311 96.438 283.99 96.057C283.669 95.676 283.813 95.0461 284.326 94.6285C284.809 94.2188 285.46 94.2001 285.781 94.5811Z" fill="url(#paint15_linear_2035_8826)"/>
<path opacity="0.5" d="M285.257 92.9786C285.436 93.1797 285.347 93.5461 285.065 93.7772C284.784 94.0083 284.411 94.0148 284.232 93.8137C284.045 93.5835 284.135 93.2172 284.416 92.9861C284.698 92.755 285.071 92.7485 285.257 92.9786Z" fill="url(#paint16_linear_2035_8826)"/>
<path d="M258.649 93.9945L260.066 94.2688C260.33 94.3225 260.621 94.2444 260.786 94.0445L261.823 93.0196C262.32 92.5439 263.115 92.8291 263.199 93.4915L263.398 94.9325C263.438 95.2017 263.596 95.4396 263.817 95.5671L265.115 96.2154C265.698 96.5262 265.712 97.3941 265.102 97.682L263.766 98.2891C263.519 98.4174 263.362 98.6464 263.308 98.91L263.068 100.344C262.961 100.995 262.153 101.243 261.677 100.748L260.68 99.7075C260.501 99.5064 260.221 99.3946 259.988 99.4571L258.543 99.6575C257.857 99.779 257.385 99.0651 257.697 98.4833L258.416 97.2013C258.544 96.9802 258.532 96.7031 258.433 96.4495L257.776 95.1625C257.459 94.5626 257.989 93.8602 258.649 93.9945Z" fill="url(#paint17_linear_2035_8826)"/>
<path fill-rule="evenodd" clip-rule="evenodd" d="M263.289 92.3158C263.666 92.5573 263.9 92.9617 263.958 93.413L264.165 94.883L265.47 95.5604C265.979 95.8287 266.318 96.3917 266.32 96.9826C266.293 97.5813 265.936 98.1129 265.405 98.3483L264.055 99.0213L263.815 100.455C263.701 101.078 263.262 101.538 262.679 101.694C262.126 101.842 261.523 101.692 261.129 101.269L260.087 100.178L258.65 100.408C258.051 100.506 257.484 100.253 257.132 99.7558C256.78 99.2586 256.77 98.6387 257.032 98.1015L257.743 96.7904L257.115 95.4956C256.874 95.0622 256.874 94.5953 257.072 94.1686C257.262 93.713 257.644 93.3926 258.081 93.2755C258.314 93.213 258.553 93.2113 258.798 93.2702L260.273 93.5288L261.31 92.5038C261.504 92.2961 261.751 92.1678 262.013 92.0975C262.45 91.9804 262.905 92.0454 263.289 92.3158ZM261.823 93.0201L260.786 94.045C260.69 94.1537 260.574 94.2263 260.438 94.2627C260.322 94.2939 260.197 94.2961 260.065 94.2693L258.649 93.995C258.517 93.9682 258.393 93.9704 258.276 94.0016C257.81 94.1265 257.519 94.6715 257.775 95.163L258.432 96.45C258.532 96.7036 258.543 96.9807 258.415 97.2018L257.697 98.4838C257.384 99.0656 257.857 99.7795 258.542 99.658L259.988 99.4575C260.221 99.3951 260.501 99.5069 260.679 99.708L261.676 100.748C261.9 101 262.193 101.046 262.485 100.968C262.776 100.89 263.028 100.666 263.067 100.345L263.308 98.9104C263.362 98.6469 263.519 98.4179 263.766 98.2896L265.102 97.6825C265.712 97.3946 265.698 96.5267 265.115 96.2159L263.817 95.5676C263.596 95.4401 263.438 95.2022 263.397 94.9329L263.198 93.492C263.154 92.9748 262.645 92.7065 262.207 92.8236C262.071 92.8601 261.943 92.9255 261.823 93.0201Z" fill="#AD5E00"/>
<path opacity="0.5" d="M259.909 96.3657C260.175 96.5434 260.167 96.9813 259.938 97.2917C259.68 97.6099 259.272 97.7192 259.035 97.5337C258.769 97.356 258.777 96.9182 259.006 96.6077C259.264 96.2895 259.672 96.1802 259.909 96.3657Z" fill="url(#paint18_linear_2035_8826)"/>
<path opacity="0.5" d="M259.345 95.4281C259.501 95.542 259.505 95.79 259.361 95.953C259.225 96.1451 258.992 96.2076 258.836 96.0936C258.718 96.0008 258.714 95.7528 258.85 95.5608C258.994 95.3978 259.227 95.3353 259.345 95.4281Z" fill="url(#paint19_linear_2035_8826)"/>
<path d="M310.282 80.9779L311.178 82.1075C311.336 82.3455 311.587 82.4651 311.857 82.4239L313.304 82.3474C313.976 82.2918 314.427 83.0426 314.041 83.5819L313.212 84.8002C313.083 85.0213 313.037 85.3139 313.136 85.5675L313.685 86.9148C313.943 87.5304 313.361 88.1534 312.692 87.9901L311.303 87.584C311.039 87.5303 310.769 87.5716 310.567 87.7502L309.44 88.6746C308.928 89.0921 308.147 88.7411 308.121 88.0631L308.047 86.6199C308.043 86.372 307.914 86.1262 307.685 85.9697L306.451 85.2108C305.882 84.8341 305.971 84.0009 306.626 83.7633L307.985 83.2433C308.24 83.144 308.405 82.9441 308.496 82.7018L308.831 81.2733C309.004 80.6356 309.865 80.4673 310.282 80.9779Z" fill="url(#paint20_linear_2035_8826)"/>
<path fill-rule="evenodd" clip-rule="evenodd" d="M310.845 80.5155L311.815 81.6876L313.255 81.582C313.868 81.5421 314.422 81.8606 314.716 82.3734C315.009 82.8862 314.99 83.514 314.654 84.0087L313.841 85.285L314.389 86.6323C314.535 87.0602 314.527 87.498 314.322 87.8956C314.116 88.2932 313.755 88.5767 313.318 88.6938C313.055 88.7641 312.778 88.7763 312.506 88.6935L311.029 88.3109L309.903 89.2353C309.734 89.3842 309.543 89.4872 309.33 89.5445C308.863 89.6694 308.372 89.5832 307.987 89.3127C307.624 89.0054 307.383 88.572 307.353 88.1129L307.293 86.6038L306.051 85.8159C305.563 85.5107 305.283 84.932 305.347 84.3546C305.403 83.7481 305.805 83.2668 306.343 83.0604L307.753 82.4958L308.126 81.0885C308.263 80.5536 308.681 80.1304 309.235 79.9821C309.846 79.8181 310.464 80.0261 310.845 80.5155ZM308.831 81.2731L308.495 82.7016C308.404 82.9439 308.239 83.1438 307.985 83.2431L306.625 83.7631C305.971 84.0007 305.881 84.834 306.451 85.2106L307.685 85.9695C307.914 86.126 308.042 86.3718 308.046 86.6197L308.121 88.0629C308.144 88.6169 308.669 88.9433 309.135 88.8184C309.232 88.7924 309.334 88.7444 309.44 88.6744L310.566 87.75C310.648 87.6659 310.747 87.6082 310.864 87.577C311.019 87.5354 311.165 87.5376 311.303 87.5839L312.692 87.9899C312.849 88.0309 312.995 88.0332 313.131 87.9968C313.568 87.8797 313.875 87.3928 313.684 86.9146L313.136 85.5674C313.037 85.3138 313.083 85.0211 313.211 84.8L314.04 83.5817C314.427 83.0424 313.976 82.2916 313.303 82.3472L311.856 82.4237C311.586 82.4649 311.335 82.3453 311.178 82.1073L310.282 80.9777C310.051 80.6972 309.72 80.6301 309.429 80.7082C309.167 80.7784 308.936 80.9649 308.831 81.2731Z" fill="#AD5E00"/>
<path opacity="0.5" d="M309.673 83.5992C309.729 83.9265 309.471 84.2447 309.085 84.3172C308.669 84.3975 308.307 84.2141 308.23 83.9237C308.173 83.5964 308.431 83.2782 308.847 83.1979C309.234 83.1254 309.624 83.301 309.673 83.5992Z" fill="url(#paint21_linear_2035_8826)"/>
<path opacity="0.5" d="M309.854 82.5228C309.9 82.697 309.735 82.8969 309.494 82.9303C309.29 82.985 309.077 82.8866 309.03 82.7123C308.983 82.5381 309.156 82.3672 309.389 82.3048C309.593 82.2501 309.815 82.3775 309.854 82.5228Z" fill="url(#paint22_linear_2035_8826)"/>
<defs>
<linearGradient id="paint0_linear_2035_8826" x1="162.894" y1="186.97" x2="88.0216" y2="-29.6073" gradientUnits="userSpaceOnUse">
<stop stop-color="#ED8300"/>
<stop offset="1" stop-color="#EDD700"/>
</linearGradient>
<linearGradient id="paint1_linear_2035_8826" x1="244.735" y1="34.5621" x2="309.29" y2="33.6616" gradientUnits="userSpaceOnUse">
<stop stop-color="#BE6D00"/>
<stop offset="0.433" stop-color="#FFF57F"/>
<stop offset="1" stop-color="#BE6D00"/>
</linearGradient>
<linearGradient id="paint2_linear_2035_8826" x1="252.223" y1="66.8718" x2="302.705" y2="66.1686" gradientUnits="userSpaceOnUse">
<stop stop-color="#BE6D00"/>
<stop offset="0.268" stop-color="#FFF57F"/>
<stop offset="1" stop-color="#BE6D00"/>
</linearGradient>
<linearGradient id="paint3_linear_2035_8826" x1="252.352" y1="76.0504" x2="302.833" y2="75.3472" gradientUnits="userSpaceOnUse">
<stop stop-color="#BE6D00"/>
<stop offset="0.268" stop-color="#FFF57F"/>
<stop offset="1" stop-color="#BE6D00"/>
</linearGradient>
<linearGradient id="paint4_linear_2035_8826" x1="274.978" y1="36.1523" x2="274.914" y2="32.039" gradientUnits="userSpaceOnUse">
<stop stop-color="#BE6D00"/>
<stop offset="1" stop-color="#FFF57F"/>
</linearGradient>
<linearGradient id="paint5_linear_2035_8826" x1="242.812" y1="44.6191" x2="242.749" y2="40.5059" gradientUnits="userSpaceOnUse">
<stop stop-color="#BE6D00"/>
<stop offset="1" stop-color="#FFF57F"/>
</linearGradient>
<linearGradient id="paint6_linear_2035_8826" x1="307.367" y1="43.6208" x2="307.303" y2="39.5076" gradientUnits="userSpaceOnUse">
<stop stop-color="#BE6D00"/>
<stop offset="1" stop-color="#FFF57F"/>
</linearGradient>
<linearGradient id="paint7_linear_2035_8826" x1="244.861" y1="69.9085" x2="244.406" y2="40.4798" gradientUnits="userSpaceOnUse">
<stop stop-color="white"/>
<stop offset="1" stop-color="white"/>
</linearGradient>
<linearGradient id="paint8_linear_2035_8826" x1="237.08" y1="64.813" x2="236.855" y2="50.2858" gradientUnits="userSpaceOnUse">
<stop stop-color="white"/>
<stop offset="1" stop-color="white"/>
</linearGradient>
<linearGradient id="paint9_linear_2035_8826" x1="263.612" y1="74.0918" x2="264.462" y2="70.7047" gradientUnits="userSpaceOnUse">
<stop stop-color="white"/>
<stop offset="1" stop-color="white"/>
</linearGradient>
<linearGradient id="paint10_linear_2035_8826" x1="263.741" y1="83.2964" x2="264.591" y2="79.9094" gradientUnits="userSpaceOnUse">
<stop stop-color="white"/>
<stop offset="1" stop-color="white"/>
</linearGradient>
<linearGradient id="paint11_linear_2035_8826" x1="231.963" y1="83.3067" x2="233.489" y2="70.9357" gradientUnits="userSpaceOnUse">
<stop stop-color="#BE6D00"/>
<stop offset="1" stop-color="#FFF57F"/>
</linearGradient>
<linearGradient id="paint12_linear_2035_8826" x1="236.319" y1="76.7965" x2="236.54" y2="75.0052" gradientUnits="userSpaceOnUse">
<stop stop-color="white"/>
<stop offset="1" stop-color="white"/>
</linearGradient>
<linearGradient id="paint13_linear_2035_8826" x1="237.987" y1="75.0084" x2="238.112" y2="73.9927" gradientUnits="userSpaceOnUse">
<stop stop-color="white"/>
<stop offset="1" stop-color="white"/>
</linearGradient>
<linearGradient id="paint14_linear_2035_8826" x1="286.647" y1="104.09" x2="278.751" y2="94.444" gradientUnits="userSpaceOnUse">
<stop stop-color="#BE6D00"/>
<stop offset="1" stop-color="#FFF57F"/>
</linearGradient>
<linearGradient id="paint15_linear_2035_8826" x1="284.919" y1="96.4632" x2="283.775" y2="95.0665" gradientUnits="userSpaceOnUse">
<stop stop-color="white"/>
<stop offset="1" stop-color="white"/>
</linearGradient>
<linearGradient id="paint16_linear_2035_8826" x1="284.769" y1="94.0278" x2="284.121" y2="93.2359" gradientUnits="userSpaceOnUse">
<stop stop-color="white"/>
<stop offset="1" stop-color="white"/>
</linearGradient>
<linearGradient id="paint17_linear_2035_8826" x1="261.857" y1="102.086" x2="255.564" y2="97.3042" gradientUnits="userSpaceOnUse">
<stop stop-color="#BE6D00"/>
<stop offset="1" stop-color="#FFF57F"/>
</linearGradient>
<linearGradient id="paint18_linear_2035_8826" x1="259.661" y1="97.6448" x2="258.75" y2="96.9523" gradientUnits="userSpaceOnUse">
<stop stop-color="white"/>
<stop offset="1" stop-color="white"/>
</linearGradient>
<linearGradient id="paint19_linear_2035_8826" x1="259.208" y1="96.1674" x2="258.691" y2="95.7747" gradientUnits="userSpaceOnUse">
<stop stop-color="white"/>
<stop offset="1" stop-color="white"/>
</linearGradient>
<linearGradient id="paint20_linear_2035_8826" x1="307.372" y1="89.2025" x2="305.742" y2="81.4783" gradientUnits="userSpaceOnUse">
<stop stop-color="#BE6D00"/>
<stop offset="1" stop-color="#FFF57F"/>
</linearGradient>
<linearGradient id="paint21_linear_2035_8826" x1="308.635" y1="84.407" x2="308.399" y2="83.2885" gradientUnits="userSpaceOnUse">
<stop stop-color="white"/>
<stop offset="1" stop-color="white"/>
</linearGradient>
<linearGradient id="paint22_linear_2035_8826" x1="309.265" y1="82.9917" x2="309.131" y2="82.3577" gradientUnits="userSpaceOnUse">
<stop stop-color="white"/>
<stop offset="1" stop-color="white"/>
</linearGradient>
</defs>
</svg>
