<svg width="26" height="21" viewBox="0 0 26 21" fill="none" xmlns="http://www.w3.org/2000/svg">
<g filter="url(#filter0_d_2035_8764)">
<path fill-rule="evenodd" clip-rule="evenodd" d="M14.631 1.37425C14.631 2.1946 13.9614 2.85962 13.1354 2.85962C12.3918 2.85962 11.775 2.32077 11.6592 1.61484L2.80734 3.36954C1.12237 3.70355 0.031835 5.34456 0.371574 7.03484L2.61028 18.1729C2.95002 19.8632 4.59138 20.9626 6.27635 20.6286L15.4946 18.8013C15.3777 18.5896 15.3112 18.3466 15.3112 18.0881C15.3112 17.2678 15.9808 16.6027 16.8069 16.6027C17.6329 16.6027 18.3026 17.2678 18.3026 18.0881C18.3026 18.1415 18.2997 18.1943 18.2942 18.2463L23.1897 17.2759C24.8747 16.9419 25.9652 15.3009 25.6255 13.6106L23.3868 2.47254C23.047 0.782264 21.4057 -0.317205 19.7207 0.0168081L14.5915 1.03357C14.6174 1.14296 14.631 1.25702 14.631 1.37425Z" fill="white"/>
<path d="M19.6816 -0.179688C21.4754 -0.535272 23.2217 0.635906 23.583 2.43359L25.8213 13.5713C26.1827 15.3694 25.0227 17.116 23.2285 17.4717L18.333 18.4424C18.2706 18.4547 18.2061 18.4365 18.1592 18.3936C18.1125 18.3507 18.0891 18.2886 18.0957 18.2256C18.1005 18.1806 18.1025 18.1342 18.1025 18.0879C18.1024 17.3794 17.5235 16.8027 16.8066 16.8027C16.0899 16.8029 15.5109 17.3795 15.5107 18.0879C15.5107 18.3116 15.5689 18.5222 15.6699 18.7051C15.7005 18.7609 15.7026 18.828 15.6758 18.8857C15.6488 18.9435 15.5958 18.9847 15.5332 18.9971L6.31543 20.8252C4.52163 21.1808 2.77539 20.0096 2.41406 18.2119L0.175781 7.07422C-0.185627 5.27613 0.974343 3.52949 2.76855 3.17383L11.6201 1.41895L11.6602 1.41504C11.7002 1.41523 11.74 1.427 11.7734 1.4502C11.8178 1.48099 11.8476 1.52876 11.8564 1.58203C11.9565 2.19186 12.4907 2.65918 13.1357 2.65918C13.8525 2.65897 14.4307 2.08248 14.4307 1.37402C14.4306 1.27248 14.4188 1.17347 14.3965 1.0791C14.3842 1.0266 14.3938 0.971213 14.4229 0.925781C14.4522 0.880107 14.4995 0.847473 14.5527 0.836914L19.6816 -0.179688Z" stroke="black" stroke-width="0.4" stroke-linejoin="round"/>
</g>
<path fill-rule="evenodd" clip-rule="evenodd" d="M23.0834 2.53408C22.7775 1.01233 21.2994 0.022185 19.7824 0.322895L14.9412 1.28257C14.9427 1.31288 14.9435 1.34338 14.9435 1.37403C14.9435 2.37001 14.1314 3.17162 13.1368 3.17162C12.3536 3.17162 11.6844 2.67511 11.4346 1.97768L2.86906 3.67563C1.35308 3.97614 0.37222 5.45211 0.677884 6.97286L2.91659 18.1109C3.22245 19.6327 4.70061 20.6228 6.21759 20.3221L15.0669 18.5679C15.0244 18.415 15.0017 18.2539 15.0017 18.0879C15.0017 17.0919 15.8138 16.2903 16.8084 16.2903C17.7283 16.2903 18.4921 16.9761 18.6016 17.8672L23.1309 16.9694C24.6469 16.6689 25.6278 15.1929 25.3221 13.6721L23.0834 2.53408ZM19.6619 -0.28972C21.5149 -0.657035 23.3195 0.551756 23.6931 2.41056L25.9318 13.5486C26.3056 15.4084 25.1054 17.2145 23.2514 17.582L18.3559 18.5524C18.2589 18.5716 18.1586 18.5434 18.0857 18.4764C18.0128 18.4094 17.9759 18.3116 17.9865 18.2129C17.9908 18.1719 17.9931 18.1302 17.9931 18.0879C17.9931 17.4432 17.4659 16.9147 16.8084 16.9147C16.1509 16.9147 15.6237 17.4432 15.6237 18.0879C15.6237 18.2919 15.676 18.483 15.768 18.6497C15.8162 18.737 15.82 18.8421 15.7781 18.9326C15.7362 19.0231 15.6538 19.0881 15.5563 19.1074L6.33806 20.9347C4.48509 21.302 2.68052 20.0932 2.30691 18.2344L0.0682096 7.09638C-0.305604 5.23658 0.894605 3.43052 2.74858 3.06301L11.6004 1.30831C11.683 1.29194 11.7687 1.30989 11.8379 1.35806C11.9071 1.40622 11.9538 1.48049 11.9675 1.5639C12.0585 2.119 12.5455 2.54717 13.1368 2.54717C13.7943 2.54717 14.3215 2.01874 14.3215 1.37403C14.3215 1.28126 14.3107 1.19139 14.2904 1.10542C14.2709 1.02285 14.2857 0.935859 14.3314 0.864478C14.3771 0.793097 14.4498 0.743476 14.5328 0.727037L19.6619 -0.28972Z" fill="black"/>
<path d="M17.3573 14.6757C16.4952 14.8554 16.0445 14.8502 16.0052 14.6599L14.0935 5.41477C14.0266 5.09138 14.14 4.89908 14.4337 4.83787L16.9348 4.31658C18.3369 4.02434 19.4058 4.10414 20.1416 4.556C20.8868 5.00587 21.3735 5.78248 21.6017 6.88581C21.7905 7.79891 21.6698 8.69713 21.2398 9.58048C21.0248 10.0221 20.6567 10.4164 20.1355 10.7631C19.6142 11.1099 18.9747 11.3622 18.2168 11.5202L18.7449 14.074C18.7685 14.1882 18.6052 14.3065 18.255 14.4291C17.9123 14.5402 17.6131 14.6224 17.3573 14.6757ZM17.2491 6.84054L17.7153 9.09476L17.9 9.05626C18.2316 8.98715 18.4894 8.82427 18.6735 8.56763C18.8576 8.31098 18.9103 7.99243 18.8317 7.61197C18.753 7.23151 18.6164 6.97722 18.4219 6.84909C18.2369 6.71899 17.9455 6.69541 17.5476 6.77834L17.2491 6.84054Z" fill="black"/>
<path d="M9.13355 6.34573C9.18824 6.03669 9.75084 5.77061 10.8214 5.54748C11.0961 5.49022 11.4373 5.4439 11.8451 5.40852C12.2603 5.36166 12.4719 5.35725 12.4797 5.3953L11.0847 10.8353L14.5622 15.0364C14.6005 15.0781 14.4066 15.1681 13.9807 15.3065C13.5528 15.4353 13.1872 15.5314 12.8841 15.5946C11.6809 15.8453 10.989 15.8209 10.8085 15.5212L9.17921 13.0183L8.79406 16.0303C8.75439 16.3164 8.17561 16.5759 7.05771 16.8089C6.78297 16.8662 6.43798 16.9183 6.02274 16.9651C5.6075 17.012 5.41195 16.9982 5.43608 16.9237L6.63219 11.5252L3.35652 7.29683C3.31827 7.2552 3.50363 7.17192 3.91261 7.04699C4.32909 6.91057 4.68418 6.81176 4.97786 6.75055C6.17155 6.50175 6.86064 6.53671 7.04513 6.85543L8.52129 9.04795L9.13355 6.34573Z" fill="black"/>
<defs>
<filter id="filter0_d_2035_8764" x="-0.0908203" y="-0.441406" width="26.1787" height="22.5312" filterUnits="userSpaceOnUse" color-interpolation-filters="sRGB">
<feFlood flood-opacity="0" result="BackgroundImageFix"/>
<feColorMatrix in="SourceAlpha" type="matrix" values="0 0 0 0 0 0 0 0 0 0 0 0 0 0 0 0 0 0 127 0" result="hardAlpha"/>
<feOffset dy="1"/>
<feComposite in2="hardAlpha" operator="out"/>
<feColorMatrix type="matrix" values="0 0 0 0 0 0 0 0 0 0 0 0 0 0 0 0 0 0 1 0"/>
<feBlend mode="normal" in2="BackgroundImageFix" result="effect1_dropShadow_2035_8764"/>
<feBlend mode="normal" in="SourceGraphic" in2="effect1_dropShadow_2035_8764" result="shape"/>
</filter>
</defs>
</svg>
